<?xml version="1.0" encoding="UTF-8" standalone="no"?>
<!-- Created with Inkscape (http://www.inkscape.org/) -->

<svg
   xmlns:dc="http://purl.org/dc/elements/1.1/"
   xmlns:cc="http://creativecommons.org/ns#"
   xmlns:rdf="http://www.w3.org/1999/02/22-rdf-syntax-ns#"
   xmlns:svg="http://www.w3.org/2000/svg"
   xmlns="http://www.w3.org/2000/svg"
   xmlns:sodipodi="http://sodipodi.sourceforge.net/DTD/sodipodi-0.dtd"
   xmlns:inkscape="http://www.inkscape.org/namespaces/inkscape"
   width="500.89236"
   height="403.42496"
   viewBox="0 0 132.52777 106.73952"
   version="1.1"
   id="svg8"
   sodipodi:docname="logo3.svg"
   inkscape:version="0.92.4 (5da689c313, 2019-01-14)">
  <defs
     id="defs2" />
  <sodipodi:namedview
     id="base"
     pagecolor="#ffffff"
     bordercolor="#666666"
     borderopacity="1.0"
     inkscape:pageopacity="0.0"
     inkscape:pageshadow="2"
     inkscape:zoom="0.35"
     inkscape:cx="-314.00421"
     inkscape:cy="-141.14547"
     inkscape:document-units="mm"
     inkscape:current-layer="layer1"
     showgrid="false"
     fit-margin-top="0"
     fit-margin-left="0"
     fit-margin-right="0"
     fit-margin-bottom="0"
     units="px"
     inkscape:window-width="1920"
     inkscape:window-height="1017"
     inkscape:window-x="-8"
     inkscape:window-y="-8"
     inkscape:window-maximized="1" />
  <metadata
     id="metadata5">
    <rdf:RDF>
      <cc:Work
         rdf:about="">
        <dc:format>image/svg+xml</dc:format>
        <dc:type
           rdf:resource="http://purl.org/dc/dcmitype/StillImage" />
        <dc:title></dc:title>
      </cc:Work>
    </rdf:RDF>
  </metadata>
  <g
     inkscape:label="Capa 1"
     inkscape:groupmode="layer"
     id="layer1"
     transform="translate(-24.493971,-4.7490752)">
    <path
       style="fill:#00b0ff;fill-opacity:1;stroke:#00b0ff;stroke-width:1.036;stroke-miterlimit:4;stroke-dasharray:none;stroke-opacity:1"
       d="m 139.68738,111.06487 c -0.2169,-0.23968 -0.39437,-0.67057 -0.39437,-0.95753 0,-0.65742 0.66105,-1.68744 1.08298,-1.68744 0.17554,0 0.42844,-0.20417 0.562,-0.45371 0.13355,-0.24955 0.58576,-0.52904 1.00491,-0.6211 1.45837,-0.32031 4.47403,-3.49635 5.03732,-5.30521 0.10047,-0.32262 0.37929,-0.85468 0.61961,-1.18233 0.24032,-0.32766 0.53778,-1.127788 0.66103,-1.778078 0.12324,-0.65027 0.40577,-1.60796 0.62782,-2.12819 0.59845,-1.40197 0.79237,-7.11773 0.34898,-10.28628 -0.13649,-0.97543 -0.31015,-2.49177 -0.38591,-3.36965 -0.14697,-1.70319 -0.40708,-1.95982 -1.15206,-1.13662 -0.22872,0.25274 -0.72406,0.52723 -1.10074,0.60996 -0.37669,0.0828 -0.68489,0.22484 -0.68489,0.31581 0,0.40423 -2.75268,4.27151 -3.70872,5.21043 -0.84048,0.82543 -1.236,1.04398 -1.92577,1.0641 -0.86568,0.0253 -0.86852,0.0221 -1.04016,-1.157 -0.29748,-2.04364 -0.41527,-6.71389 -0.17311,-6.86355 0.12469,-0.077 0.22671,-0.40839 0.22671,-0.73626 0,-0.32787 0.33325,-1.51871 0.74056,-2.6463 0.40731,-1.12758 0.89325,-2.47578 1.07985,-2.99601 0.36033,-1.00449 1.8522,-2.71936 2.36574,-2.71936 0.16869,0 0.3067,-0.10019 0.3067,-0.22264 0,-0.27842 2.39967,-2.09419 3.66524,-2.77341 1.2409,-0.665981 3.33304,-0.914268 4.77965,-0.567232 0.8672,0.208033 1.23171,0.441532 1.54707,0.991022 0.22691,0.39537 0.41256,0.88634 0.41256,1.09104 0,0.33162 0.0471,0.32953 0.43245,-0.0191 0.79189,-0.71666 1.93221,-0.35629 1.93221,0.61063 0,0.23895 -0.48894,0.90967 -1.08654,1.49047 -1.00604,0.97775 -1.09281,1.1567 -1.17094,2.41496 -0.234,3.76801 -0.41667,5.42232 -0.64617,5.85181 -0.13899,0.26011 -0.22599,0.9842 -0.19334,1.60909 0.0326,0.62488 -0.064,1.28483 -0.21485,1.46656 -0.15082,0.18173 -0.21101,0.52957 -0.13376,0.77297 0.0772,0.24341 -0.0179,0.75996 -0.21141,1.14789 -0.46064,0.92339 -0.82963,3.58176 -0.66624,4.79992 0.0925,0.69003 0.0437,0.96279 -0.17226,0.96279 -0.22977,0 -0.27073,0.44721 -0.1724,1.88189 0.0984,1.43625 0.0516,1.94614 -0.19784,2.15314 -0.17976,0.14918 -0.39592,0.79207 -0.48036,1.42864 -0.0845,0.63656 -0.2327,1.15739 -0.32945,1.15739 -0.0968,0 -0.2258,0.50544 -0.28676,1.12322 -0.13602,1.378228 -1.10207,3.525928 -1.9331,4.297608 -0.33955,0.3153 -0.61872,0.68773 -0.62038,0.82763 -0.004,0.30842 -1.35822,1.92552 -2.91764,3.48314 -0.7008,0.69999 -1.35705,1.14585 -1.68656,1.14585 -0.31033,0 -0.92779,0.38747 -1.45397,0.91237 -1.15456,1.15181 -1.77173,1.36349 -2.29369,0.78674 z m 1.73382,-1.22617 c 0.57485,-0.52023 1.2723,-0.94587 1.5499,-0.94587 0.30015,0 1.05244,-0.55113 1.85598,-1.35968 1.73578,-1.74663 1.85285,-1.8847 2.5593,-3.01842 0.32536,-0.52213 0.76307,-1.09168 0.9727,-1.26565 0.63455,-0.52663 1.57517,-2.78019 1.61197,-3.861968 0.019,-0.55937 0.17808,-1.22693 0.35347,-1.48346 0.17537,-0.25654 0.31952,-0.68218 0.32033,-0.94587 7e-4,-0.26368 0.15972,-0.78289 0.35316,-1.15379 0.22512,-0.43161 0.34245,-1.28276 0.326,-2.36466 -0.0351,-2.31133 0.20097,-5.32698 0.47409,-6.05479 0.48074,-1.28106 0.6146,-1.98993 0.87267,-4.62124 0.0893,-0.91039 0.26583,-1.78572 0.39229,-1.94516 0.12647,-0.15945 0.35205,-1.88875 0.50128,-3.8429 l 0.27135,-3.55298 1.00498,-0.91823 c 0.55274,-0.50504 1.00498,-1.01921 1.00498,-1.14262 0,-0.48237 -0.32554,-0.50392 -0.89119,-0.059 -0.32526,0.25586 -0.67816,0.4652 -0.78422,0.4652 -0.10606,0 -0.43563,-0.52924 -0.73238,-1.17608 -0.49974,-1.08934 -0.61492,-1.18738 -1.56192,-1.32938 -2.42338,-0.363411 -4.62896,0.46019 -7.1172,2.65769 -0.47005,0.41512 -1.24057,1.08226 -1.71225,1.48252 -0.47168,0.40024 -0.98961,1.07405 -1.15094,1.49733 -0.16133,0.42328 -0.43092,1.08884 -0.59908,1.479 -0.42156,0.97804 -1.19575,3.38449 -1.40875,4.37882 -0.097,0.45289 -0.27967,0.9518 -0.4059,1.10867 -0.12624,0.15687 -0.17523,0.37308 -0.10887,0.48046 0.0664,0.10737 0.13974,1.04313 0.16305,2.07944 0.053,2.35617 0.41232,4.3671 0.78033,4.3671 0.56556,0 2.52249,-2.06338 3.80607,-4.0131 0.7253,-1.10173 1.31873,-2.07777 1.31873,-2.16898 0,-0.0912 0.37244,-0.28875 0.82764,-0.43898 0.45519,-0.15023 0.82763,-0.35422 0.82763,-0.45331 0,-0.3057 1.21256,-0.7513 1.65892,-0.60962 0.52525,0.1667 0.67128,0.73518 0.82971,3.22987 0.0688,1.08418 0.18149,2.15357 0.25028,2.37644 0.15374,0.49802 0.38368,2.7328 0.34759,3.37825 -0.0146,0.26011 -0.0548,1.48383 -0.0894,2.71936 -0.0681,2.42967 -0.28778,3.79881 -0.75942,4.73244 -0.16512,0.32686 -0.37637,1.10213 -0.46944,1.72281 -0.0931,0.62069 -0.42261,1.501898 -0.73229,1.958238 -0.30968,0.45633 -0.56305,1.07962 -0.56305,1.38507 0,0.30545 -0.15962,0.61661 -0.3547,0.69147 -0.19509,0.0749 -0.3547,0.28258 -0.3547,0.46158 0,0.17902 -0.21282,0.51807 -0.47293,0.75347 -0.26011,0.2354 -0.47294,0.57112 -0.47294,0.74605 0,0.17492 -0.0949,0.31805 -0.21088,0.31805 -0.11599,0 -0.74415,0.47945 -1.39591,1.06543 -0.65176,0.58599 -1.51834,1.1321 -1.92571,1.21357 -0.40738,0.0815 -0.84321,0.3397 -0.9685,0.57382 -0.1253,0.23412 -0.41441,0.4849 -0.64247,0.55729 -0.65539,0.20801 -1.09035,1.04926 -0.7528,1.45598 0.15344,0.1849 0.29682,0.33617 0.31862,0.33617 0.0218,0 0.50996,-0.42564 1.08479,-0.94586 z m 1.75237,-27.700758 c -0.092,-0.14886 -0.17665,-1.47425 -0.18809,-2.94529 -0.0193,-2.48616 0.0168,-2.70969 0.51326,-3.17219 0.29375,-0.27367 0.47279,-0.59675 0.39788,-0.71796 -0.2354,-0.38087 1.29885,-2.34242 2.08944,-2.67139 0.4156,-0.17294 1.38087,-0.37845 2.14503,-0.45671 1.70245,-0.17434 2.30976,0.15475 2.75058,1.49044 0.36155,1.09549 0.14289,1.69393 -1.04234,2.85271 -0.51668,0.50514 -0.70382,0.91402 -0.7162,1.56479 -0.0127,0.66634 -0.14599,0.9457 -0.54719,1.14669 -0.29173,0.14615 -0.71737,0.42192 -0.94586,0.61283 -0.2285,0.1909 -0.70237,0.4692 -1.05304,0.61844 -0.35067,0.14923 -1.05523,0.64865 -1.56568,1.10981 -0.95312,0.86109 -1.54376,1.04358 -1.83779,0.56783 z m 3.29742,-2.4441 c 2.01587,-1.03114 2.16176,-1.1754 2.08536,-2.06219 -0.0564,-0.65415 0.0519,-0.93723 0.49057,-1.28263 1.36808,-1.07728 1.65879,-2.3571 0.74335,-3.27255 -0.29214,-0.29213 -0.68066,-0.3509 -1.6882,-0.25532 -2.14511,0.20349 -2.63845,0.63496 -3.93255,3.43933 -0.5703,1.23584 -0.69459,2.18365 -0.51108,3.89726 l 0.16552,1.5457 0.9517,-0.81461 c 0.52343,-0.44805 1.28633,-0.98579 1.69533,-1.19499 z M 35.602541,90.789322 c -4.075242,-1.75596 -5.703264,-2.73935 -7.980339,-4.82048 -1.424728,-1.30212 -1.580072,-2.01786 -0.496952,-2.28971 0.457788,-0.1149 0.813387,0.0859 1.804359,1.01881 2.005383,1.88792 4.781031,3.6063 7.20498,4.46056 0.998695,0.35197 1.241449,0.54125 1.241449,0.96802 0,0.88216 -0.67711,1.13521 -1.773497,0.6628 z m 0.807926,-0.66659 c -0.05419,-0.0491 -0.896601,-0.43433 -1.872025,-0.85608 -1.843092,-0.79691 -4.332497,-2.34509 -5.556958,-3.45591 -1.418063,-1.28644 -1.846027,-1.62221 -1.660935,-1.30312 0.654578,1.12846 3.856751,3.43649 6.626727,4.77633 1.573018,0.76086 2.861498,1.19963 2.463191,0.83878 z m 21.721625,-0.26052 c -1.516357,-0.4174 -3.128598,-1.39591 -4.61723,-2.80233 -0.730292,-0.68996 -1.241447,-1.02814 -1.241447,-0.82133 0,0.68233 -4.282289,1.60899 -7.433002,1.60845 -2.738652,-4.7e-4 -6.729551,-0.76991 -7.628524,-1.47078 -0.15531,-0.12108 -0.314924,-0.61021 -0.354699,-1.08694 -0.08172,-0.9795 -0.751563,-1.34545 -0.965472,-0.52746 -0.448682,1.71576 -4.536933,-1.27164 -6.713676,-4.90587 -1.28755,-2.14967 -1.749125,-3.54666 -1.906908,-5.77139 -0.399459,-5.632388 3.072783,-10.95199 8.969488,-13.741574 4.682177,-2.215023 10.875777,-2.39603 16.072689,-0.469719 4.70787,1.745046 8.64994,5.845537 9.776035,10.168893 0.403227,1.5481 0.465403,3.54001 0.114156,3.6571 -0.130881,0.0436 1.412061,1.60752 3.428761,3.47533 l 3.666725,3.39601 v 2.69492 2.69492 l -2.476062,1.83844 c -1.548015,1.14938 -2.878727,1.94613 -3.550388,2.12577 -1.360495,0.36388 -3.694684,0.33552 -5.140446,-0.0625 z m 5.224789,-0.79923 c 1.206067,-0.45826 2.140098,-1.08119 4.227726,-2.81958 l 1.241449,-1.03377 v -1.97926 -1.97926 l -4.788443,-4.4845 c -6.045417,-5.66167 -5.972463,-5.60421 -6.762017,-5.32653 -0.342628,0.12049 -0.654789,0.38434 -0.69369,0.58635 -0.04132,0.21453 0.818221,1.17973 2.066782,2.32087 2.01999,1.84619 2.651492,2.85903 1.782594,2.85903 -0.195207,0 -1.742454,-1.30351 -3.438326,-2.8967 -1.695875,-1.59319 -3.28827,-2.99115 -3.53866,-3.10658 -0.554101,-0.25543 -1.700178,0.40506 -1.519562,0.87574 0.06547,0.17062 1.55179,1.63024 3.302925,3.24357 2.951367,2.71913 3.743401,3.77571 2.830353,3.77571 -0.194442,0 -2.132462,-1.64936 -4.306718,-3.66523 -2.476313,-2.29593 -4.137574,-3.66522 -4.446737,-3.66522 -0.551081,0 -1.06107,0.41402 -1.06107,0.86139 0,0.16164 1.700522,1.86951 3.77894,3.79529 3.51952,3.26103 4.358062,4.32903 3.398965,4.32903 -0.213961,0 -1.623891,-1.15148 -3.13318,-2.55885 -1.509288,-1.40737 -2.938086,-2.63069 -3.175106,-2.71851 -0.566627,-0.20993 -1.342551,0.21929 -1.342551,0.74267 0,0.22973 1.449148,1.74863 3.251411,3.40791 6.394257,5.88696 6.1711,5.6379 5.338107,5.95755 -0.268735,0.10313 -0.706167,-0.14611 -1.359681,-0.77471 -1.162926,-1.11859 -1.782032,-1.45609 -2.662316,-1.4513 -1.471291,0.008 -1.364547,0.33574 0.730485,2.24287 1.112784,1.01298 2.418497,2.11036 2.901586,2.43863 2.044464,1.38925 5.245234,1.8333 7.376734,1.02339 z m -14.426754,-2.38804 c 1.217517,-0.25122 2.281615,-0.52598 2.364662,-0.61058 0.08305,-0.0846 -0.355318,-0.59592 -0.974147,-1.13627 -0.618824,-0.54035 -1.124271,-1.14402 -1.123214,-1.3415 9.83e-4,-0.19748 0.294552,-0.552 0.652207,-0.78782 0.377201,-0.24871 0.451677,-0.35646 0.17735,-0.25659 -1.653311,0.60192 -3.652434,0.78085 -8.926052,0.79896 -3.12239,0.0107 -5.902895,0.0724 -6.178899,0.13699 -0.65827,0.15414 -1.199718,-0.21386 -1.016636,-0.69097 0.122665,-0.31965 0.613386,-0.37856 3.153714,-0.37856 2.655039,0 2.954569,-0.0394 2.549806,-0.33537 -0.719114,-0.52583 -0.227784,-0.71842 1.741118,-0.68249 1.170625,0.0214 1.533028,-0.0232 1.016282,-0.12476 -0.768071,-0.15104 -1.463462,-0.80776 -1.168103,-1.10312 0.07712,-0.0771 0.636318,-0.0153 1.242658,0.13738 1.818149,0.45781 6.285547,-0.0863 6.285547,-0.76565 0,-0.15114 -0.164278,-0.17762 -0.413816,-0.0667 -0.557006,0.24761 -4.177527,0.42549 -4.911366,0.24131 -0.322561,-0.081 -0.586476,-0.30479 -0.586476,-0.4974 0,-0.27178 0.330901,-0.35048 1.477915,-0.35151 0.812853,-7e-4 1.884174,-0.11413 2.380714,-0.25202 0.731913,-0.20323 0.851212,-0.31285 0.630263,-0.57907 -0.204039,-0.24586 -0.644832,-0.29363 -1.753851,-0.19006 -2.629355,0.24553 -4.938121,-0.88934 -5.837558,-2.86944 -1.64614,-3.62397 2.121009,-7.283779 6.490798,-6.305867 0.721428,0.161452 1.664125,0.552577 2.094881,0.869167 0.430757,0.31659 1.134177,0.73966 1.563154,0.94015 0.728883,0.34065 0.824182,0.33303 1.4553,-0.11637 0.97034,-0.69094 2.623032,-0.65237 3.475764,0.0811 l 0.653369,0.56201 0.643164,-0.47551 c 0.51365,-0.37977 0.888404,-0.45195 1.861028,-0.3585 1.085629,0.10432 1.360246,0.2554 2.529168,1.39143 l 1.311305,1.27439 -0.148055,-1.41879 c -0.224236,-2.14883 -1.677286,-4.913754 -3.639178,-6.924773 -1.901622,-1.949245 -4.190409,-3.332026 -7.193983,-4.346285 -2.063244,-0.696717 -2.42243,-0.74438 -5.747768,-0.762728 -4.109978,-0.0227 -5.321852,0.238957 -8.818285,1.903799 -2.569168,1.223321 -5.209991,3.546136 -6.562015,5.771803 -1.740557,2.865264 -2.148874,6.494294 -1.105061,9.821534 0.749077,2.38775 3.102763,5.55485 5.160012,6.94327 1.252915,0.84559 1.416662,0.8709 1.580513,0.24433 0.09303,-0.35573 0.322544,-0.47294 0.926152,-0.47294 1.006398,0 1.369996,0.35552 1.369996,1.33954 0,0.96724 0.372011,1.18008 3.050283,1.74512 2.673853,0.56411 5.531431,0.56388 8.26734,-7.1e-4 z m 7.126748,-1.74679 c 0,-0.0449 -0.239422,-0.2843 -0.532049,-0.53205 l -0.532049,-0.45047 0.450466,0.53205 c 0.423327,0.5 0.613632,0.6397 0.613632,0.45047 z m -4.965792,-0.23647 c 0,-0.0449 -0.239422,-0.28429 -0.53205,-0.53205 l -0.532048,-0.45046 0.450466,0.53205 c 0.423326,0.49999 0.613632,0.63969 0.613632,0.45046 z m -5.261375,-1.97315 c -0.227599,-0.0594 -0.600033,-0.0594 -0.827632,0 -0.227599,0.0595 -0.04138,0.10814 0.413816,0.10814 0.455198,0 0.641414,-0.0487 0.413816,-0.10814 z m 6.143198,0.0201 c -0.07858,-0.0786 -0.28253,-0.087 -0.453228,-0.0187 -0.188636,0.0755 -0.132606,0.13151 0.142866,0.14287 0.249274,0.0103 0.388938,-0.0457 0.310362,-0.12421 z m -4.49286,-0.23646 c -0.07858,-0.0786 -0.282529,-0.087 -0.453227,-0.0187 -0.188637,0.0755 -0.132606,0.13151 0.142865,0.14286 0.249273,0.0103 0.388938,-0.0456 0.310362,-0.1242 z m 1.182332,-0.23648 c -0.07858,-0.0786 -0.28253,-0.087 -0.453228,-0.0187 -0.188636,0.0755 -0.132605,0.13153 0.142866,0.14288 0.249273,0.0103 0.388937,-0.0457 0.310362,-0.12421 z m 2.783404,-0.0936 c 0.311838,-0.13399 0.352113,-0.20765 0.118234,-0.21622 -0.195085,-0.007 -0.514314,0.0901 -0.709399,0.21622 -0.432254,0.27935 -0.05891,0.27935 0.591165,0 z m -7.512731,-0.14282 c -0.07858,-0.0786 -0.282528,-0.087 -0.453227,-0.0187 -0.188637,0.0755 -0.132605,0.13152 0.142865,0.14286 0.249275,0.0103 0.388938,-0.0457 0.310362,-0.12419 z m 4.202203,-0.4501 c 0.650282,-0.18265 1.395151,-0.49265 1.655265,-0.6889 0.338238,-0.2552 0.118639,-0.22449 -0.771053,0.10782 -0.874866,0.32677 -1.892256,0.47278 -3.428761,0.49208 -1.201627,0.0151 -1.971957,0.0786 -1.711844,0.14118 0.260113,0.0626 0.579342,0.21699 0.709399,0.34317 0.270593,0.26252 1.819189,0.0899 3.546994,-0.39535 z m 4.611093,0.51138 c 0,-0.0449 -0.239422,-0.2843 -0.532049,-0.53205 l -0.532049,-0.45046 0.450466,0.53204 c 0.423326,0.5 0.613632,0.6397 0.613632,0.45047 z m -1.698379,-0.7122 c 0.492172,-0.27308 0.509701,-0.33591 0.171935,-0.61622 -0.316376,-0.26257 -0.354924,-0.25693 -0.242705,0.0355 0.08204,0.21379 -0.07522,0.44813 -0.408403,0.6086 -0.297994,0.14353 -0.435401,0.26438 -0.305344,0.26858 0.130056,0.004 0.483089,-0.12921 0.784517,-0.29646 z m -7.824316,-0.53142 c -0.07858,-0.0786 -0.282528,-0.087 -0.453227,-0.0187 -0.188637,0.0755 -0.132604,0.13152 0.142865,0.14287 0.249275,0.0103 0.388938,-0.0457 0.310362,-0.1242 z m 12.123824,-0.64052 c 0,-0.0407 -0.345831,-0.38653 -0.768515,-0.76852 l -0.768516,-0.69452 0.694523,0.76852 c 0.647393,0.71637 0.842508,0.8772 0.842508,0.69452 z m -5.59422,-0.87188 c -0.347643,-0.39016 -0.684187,-0.7094 -0.747875,-0.7094 -0.06369,0 0.06031,0.1946 0.275555,0.43245 0.215243,0.23784 0.391349,0.55707 0.391349,0.70939 0,0.15233 0.160436,0.27696 0.356523,0.27696 0.256488,0 0.179171,-0.19904 -0.275552,-0.7094 z m 8.19535,-0.78339 c 0,-0.0407 -0.345832,-0.38652 -0.768516,-0.76851 l -0.768515,-0.69453 0.694523,0.76852 c 0.647392,0.71636 0.842508,0.87721 0.842508,0.69452 z m -5.202259,-0.70564 c 0,-0.0386 -0.452241,-0.49088 -1.004982,-1.00499 l -1.004981,-0.93473 0.934739,1.00497 c 0.869298,0.93463 1.075224,1.11365 1.075224,0.93475 z m -6.56194,-0.79094 c 0.778459,-0.12867 0.886749,-0.22735 0.886749,-0.80813 0,-1.01955 0.726585,-1.57283 1.859744,-1.41617 0.177491,0.0246 -0.06194,-0.29311 -0.53205,-0.70588 -1.145833,-1.00606 -1.2035,-2.15163 -0.140839,-2.79788 l 0.713923,-0.43416 -0.891273,-0.61411 c -2.074551,-1.429438 -4.883015,-1.375778 -6.593422,0.12598 -2.066392,1.81431 -1.993723,4.05562 0.184176,5.68047 1.365321,1.01862 2.605586,1.28515 4.512992,0.96988 z m -2.376486,-2.96958 c -0.365794,-0.36579 -0.365794,-1.43134 0,-1.79714 0.156067,-0.15606 0.627311,-0.28376 1.047207,-0.28376 1.302159,0 1.964709,1.16341 1.135039,1.99308 -0.438687,0.43868 -1.777504,0.49257 -2.182246,0.0879 z m 1.726204,-0.89533 c 0,-0.42096 -0.779979,-0.61841 -1.115905,-0.28248 -0.130922,0.13091 -0.162782,0.35981 -0.0708,0.50863 0.235058,0.38033 1.186708,0.19898 1.186708,-0.22615 z m 14.542678,3.23705 c 0,-0.0386 -0.452242,-0.49087 -1.004983,-1.00498 l -1.004981,-0.93474 0.934739,1.00498 c 0.869298,0.93462 1.075225,1.11364 1.075225,0.93474 z m -5.202259,-0.7094 c 0,-0.0386 -0.452242,-0.49087 -1.004982,-1.00498 l -1.004982,-0.93474 0.93474,1.00498 c 0.869297,0.93463 1.075224,1.11365 1.075224,0.93474 z m 6.857523,-2.13954 c 0,-0.0449 -0.239423,-0.28429 -0.53205,-0.53204 l -0.532049,-0.45047 0.450466,0.53205 c 0.423327,0.49999 0.613633,0.63969 0.613633,0.45046 z m -5.795099,-1.80743 c 0.08284,-0.13405 -0.01208,-0.17369 -0.22251,-0.0929 -0.409659,0.1572 -0.484612,0.32669 -0.144471,0.32669 0.12238,0 0.287524,-0.10519 0.366981,-0.23375 z m -4.673461,-0.14558 c -0.07858,-0.0786 -0.28253,-0.087 -0.453228,-0.0187 -0.188636,0.0755 -0.132605,0.13152 0.142867,0.14287 0.249273,0.0103 0.388937,-0.0457 0.310361,-0.1242 z m 8.340363,0.0613 c 0,-0.0449 -0.239423,-0.28429 -0.53205,-0.53205 l -0.532049,-0.45047 0.450467,0.53206 c 0.423326,0.49999 0.613632,0.6397 0.613632,0.45046 z m -7.773225,-0.80517 c 0.294133,-0.37504 0.28577,-0.38341 -0.08928,-0.0893 -0.227599,0.1785 -0.413817,0.36472 -0.413817,0.41382 0,0.19462 0.194184,0.0694 0.503097,-0.32453 z m 6.181577,-0.21422 c -0.160094,-0.0648 -0.479324,-0.0687 -0.709399,-0.009 -0.230074,0.06 -0.09909,0.11296 0.291084,0.11777 0.390169,0.005 0.57841,-0.0442 0.418315,-0.10901 z m -4.49286,-0.23647 c -0.160095,-0.0648 -0.479324,-0.0687 -0.709398,-0.009 -0.230075,0.06 -0.09909,0.11295 0.291082,0.11777 0.39017,0.005 0.578411,-0.0442 0.418316,-0.10901 z m 23.583014,18.86179 c -0.721312,-0.19847 -0.945366,-1.41136 -0.367469,-1.98925 0.202109,-0.20211 0.367469,-0.5749 0.367469,-0.82841 0,-0.25353 0.17346,-0.87298 0.385466,-1.37658 0.212006,-0.50359 0.421279,-1.41085 0.465052,-2.01613 0.04377,-0.60528 0.291179,-1.45656 0.549795,-1.89174 1.58672,-2.66996 1.994563,-4.56162 2.01449,-9.34363 0.01308,-3.138631 0.04755,-3.385953 0.546007,-3.916937 0.292627,-0.311724 0.53205,-0.739857 0.53205,-0.951394 0,-0.211546 0.111577,-0.453578 0.247948,-0.537865 0.159391,-0.09851 0.167256,-0.251291 0.02201,-0.427767 -0.337442,-0.410044 -0.289,-2.727077 0.07524,-3.598831 0.213716,-0.511491 0.267791,-1.180314 0.164115,-2.029806 l -0.154621,-1.266953 -2.187313,-0.06801 c -1.203023,-0.03736 -2.187314,-0.160443 -2.187314,-0.273446 0,-0.113004 -0.213387,-0.149656 -0.474193,-0.08142 -0.603381,0.157788 -1.181382,-0.315264 -1.180009,-0.965748 4.73e-4,-0.276699 0.600471,-1.175042 1.333077,-1.9963 1.310791,-1.469419 1.347506,-1.490868 2.304484,-1.34628 0.534859,0.08079 1.18529,0.236302 1.445403,0.345543 1.538069,0.645908 3.728286,1.168946 4.363236,1.041947 0.853537,-0.170703 3.553408,0.61024 3.556363,1.028684 0.0012,0.157351 0.454264,0.416425 1.007003,0.575733 0.552741,0.159298 1.214877,0.429589 1.471415,0.600658 0.256535,0.171061 0.687495,0.311019 0.957688,0.311019 0.270192,0 0.593779,0.10252 0.719082,0.227821 0.125308,0.12531 0.859378,0.302054 1.631258,0.392777 1.2056,0.141692 1.51332,0.284581 2.183,1.013625 0.84866,0.923885 0.93738,1.25966 0.48624,1.840084 -0.73609,0.947042 -3.82682,3.847655 -5.237275,4.915118 -1.502387,1.137049 -1.537247,1.186758 -1.021701,1.45688 0.293569,0.153811 1.595815,0.541922 2.893876,0.862459 1.29807,0.320539 2.91133,0.848859 3.58503,1.174039 0.67369,0.32519 1.70881,0.66382 2.30027,0.75251 0.849292,0.12736 1.161212,0.3066 1.483762,0.85262 0.29736,0.50341 0.66845,0.74245 1.36495,0.87927 0.80347,0.15784 0.96837,0.28918 1.0303,0.82068 0.0438,0.37569 0.25993,0.69186 0.53204,0.77823 0.25208,0.08 0.45792,0.27131 0.45743,0.42512 -0.002,0.59122 -0.98817,1.85686 -2.00626,2.57447 -0.58469,0.41214 -1.12431,0.94227 -1.19916,1.17809 -0.0749,0.23582 -0.28853,0.42877 -0.47485,0.42877 -0.18631,0 -0.33877,0.0932 -0.33877,0.20704 0,0.11387 -0.877872,0.653 -1.950842,1.19806 -1.07296,0.54507 -2.28493,1.22337 -2.69328,1.50735 -1.16242,0.8084 -2.24039,1.39108 -3.395723,1.83548 -2.005596,0.77148 -6.266241,2.27608 -7.330456,2.58867 -0.585253,0.17191 -1.165187,0.40047 -1.288741,0.50791 -0.123554,0.10744 -0.442783,0.19772 -0.709399,0.20061 -0.266616,0.003 -0.75078,0.21334 -1.075921,0.46767 -0.325141,0.25433 -0.720033,0.46479 -0.877536,0.46767 -0.157506,0.003 -0.476736,0.20774 -0.709399,0.45522 -0.232667,0.24747 -0.881927,0.57259 -1.442801,0.72249 -0.560875,0.1499 -1.146129,0.30907 -1.300566,0.3537 -0.154435,0.0446 -0.546815,0.008 -0.871957,-0.0815 z m 2.009964,-0.89285 c 0.390169,-0.071 0.815808,-0.25776 0.945864,-0.41518 0.130057,-0.15742 0.555696,-0.4458 0.945866,-0.64084 0.390169,-0.19504 0.922219,-0.474 1.182331,-0.6199 0.594791,-0.33363 3.239383,-1.26346 5.556959,-1.95382 1.534512,-0.45709 3.055957,-1.04197 5.438724,-2.09076 0.983104,-0.43272 2.433384,-1.29623 3.332844,-1.98439 0.46748,-0.35766 0.99952,-0.65865 1.18234,-0.66887 0.1828,-0.0102 0.81122,-0.33019 1.39647,-0.71104 0.58526,-0.38085 1.246792,-0.75641 1.470082,-0.83458 0.2233,-0.0782 0.46821,-0.33817 0.54426,-0.57779 0.0761,-0.23961 0.50072,-0.65966 0.94371,-0.93345 0.443,-0.27378 1.08521,-0.83027 1.42715,-1.23665 l 0.62172,-0.73887 -0.5304,-0.40008 c -0.29951,-0.22593 -0.47323,-0.5491 -0.39907,-0.74237 0.0939,-0.2448 -0.1515,-0.41794 -0.86176,-0.6079 -0.65644,-0.17557 -1.10215,-0.46939 -1.31481,-0.86673 -0.22233,-0.41544 -0.58385,-0.64214 -1.170412,-0.73392 -0.46679,-0.073 -1.16794,-0.27596 -1.5581,-0.45094 -0.39017,-0.17497 -1.10552,-0.49286 -1.58966,-0.70642 -0.48414,-0.21356 -1.70785,-0.59822 -2.71936,-0.8548 -2.863025,-0.726244 -4.085531,-1.218538 -4.085531,-1.645205 0,-0.333639 3.048727,-3.074515 3.419841,-3.074515 0.25059,0 3.13594,-2.934511 3.40608,-3.464119 0.22179,-0.434817 0.1507,-0.614439 -0.49192,-1.242723 -0.45363,-0.443505 -0.90529,-0.685519 -1.14021,-0.610964 -0.43662,0.138582 -3.159158,-0.634906 -4.602626,-1.307617 -0.520226,-0.242452 -1.238492,-0.511804 -1.596148,-0.598559 -0.357655,-0.08678 -0.650282,-0.285511 -0.650282,-0.441673 0,-0.496485 -2.124709,-1.011435 -3.310528,-0.802347 -0.663549,0.116999 -1.093768,0.09937 -1.14292,-0.04683 -0.04335,-0.128939 -0.367903,-0.234435 -0.721222,-0.234435 -0.353321,0 -0.74349,-0.08473 -0.867044,-0.188193 -0.264636,-0.221698 -1.576634,-0.657374 -2.611299,-0.867133 -0.639129,-0.129573 -0.833022,-0.03226 -1.537032,0.771147 -1.813019,2.069094 -1.875388,2.259798 -0.659487,2.016623 0.50019,-0.100044 0.681481,-0.04513 0.681481,0.206371 0,0.273598 0.402686,0.339145 1.997557,0.325149 1.261141,-0.01108 2.10248,0.08714 2.282164,0.266492 0.714452,0.712983 0.654361,3.753867 -0.09368,4.740876 -0.146594,0.193431 -0.116771,0.424809 0.08629,0.669485 0.240964,0.290347 0.248517,0.472855 0.03379,0.816674 -0.175228,0.280586 -0.191672,0.495198 -0.04488,0.585921 0.302833,0.187156 0.299274,1.227843 -0.0048,1.415803 -0.130057,0.08035 -0.236467,0.309294 -0.236467,0.508703 0,0.199409 -0.21282,0.633128 -0.472932,0.9638 -0.521773,0.663339 -0.693445,3.138589 -0.217673,3.138589 0.157414,0 0.198703,0.25747 0.107718,0.67172 -0.08114,0.36945 -0.193346,1.2167 -0.249339,1.88277 -0.180497,2.14717 -1.050701,5.82163 -1.534799,6.48077 -0.25881,0.35239 -0.470565,0.7384 -0.470565,0.85779 0,0.1194 -0.159615,0.34956 -0.3547,0.51147 -0.217159,0.18022 -0.354699,0.69871 -0.354699,1.33711 0,0.57351 -0.159615,1.42476 -0.3547,1.89165 -0.195085,0.46691 -0.354699,1.1585 -0.354699,1.53686 0,0.37837 -0.151388,0.74604 -0.336417,0.81704 -0.408161,0.15663 -0.665506,0.75638 -0.464265,1.08201 0.0807,0.13056 0.426873,0.16771 0.769283,0.0826 0.342411,-0.0852 0.941793,-0.21287 1.331963,-0.2838 z m 2.640541,-3.54702 c -0.226765,-0.22677 -0.19465,-2.54309 0.03896,-2.81002 0.295868,-0.33806 0.840715,-2.29315 0.774131,-2.77784 -0.03211,-0.23375 0.159189,-0.79376 0.425117,-1.24447 0.439411,-0.74475 0.462163,-0.98632 0.24951,-2.64907 -0.128697,-1.00627 -0.174075,-2.0956 -0.100841,-2.42074 0.177061,-0.78611 1.570918,-1.42834 2.830107,-1.30401 1.869201,0.18458 3.594519,0.19328 3.875592,0.0196 0.157489,-0.0973 0.634775,-0.0116 1.060634,0.19047 0.425861,0.20208 1.564418,0.4892 2.530127,0.63804 0.96571,0.14884 1.96865,0.38673 2.22877,0.52864 0.26011,0.14191 0.6944,0.23154 0.96507,0.19919 0.28949,-0.0346 0.96933,0.33549 1.65093,0.89873 0.63733,0.52666 1.28771,0.95756 1.44529,0.95756 0.411692,0 1.022732,0.95632 1.022732,1.60065 0,0.37338 -0.23861,0.67868 -0.74434,0.95236 -0.409382,0.22155 -1.081472,0.68929 -1.493542,1.0394 -0.41205,0.35014 -1.31654,0.86023 -2.00996,1.13355 -0.69342,0.27333 -1.50826,0.69163 -1.81074,0.92956 -0.30249,0.23794 -1.16464,0.67552 -1.915908,0.97241 -0.751262,0.2969 -1.46702,0.62963 -1.590574,0.73941 -0.123554,0.10977 -0.449208,0.19959 -0.723679,0.19959 -0.274469,0 -1.184273,0.27501 -2.021787,0.61114 -1.96617,0.7891 -2.590857,0.97983 -4.596812,1.40352 -1.907926,0.40298 -1.880674,0.40047 -2.088785,0.19236 z m 2.162536,-0.91286 c 0.950959,-0.19839 2.121466,-0.50485 2.601129,-0.68101 0.479663,-0.17617 1.244548,-0.45392 1.699746,-0.61724 0.455198,-0.16331 0.928721,-0.38881 1.052275,-0.50113 0.123554,-0.1123 0.439227,-0.20419 0.701494,-0.20419 0.617735,0 2.513582,-0.69914 2.994176,-1.10417 0.205327,-0.17304 0.538131,-0.31462 0.739561,-0.31462 0.20143,0 0.48986,-0.14895 0.64095,-0.33101 0.1511,-0.18205 0.88239,-0.57335 1.6251,-0.86954 0.74272,-0.2962 1.6805,-0.81232 2.08398,-1.14692 0.40346,-0.3346 1.07341,-0.79244 1.48877,-1.01742 0.646162,-0.34999 0.719042,-0.47664 0.504682,-0.87716 -0.137792,-0.25747 -0.608612,-0.63804 -1.046272,-0.84572 -0.43765,-0.20768 -1.04001,-0.63764 -1.33858,-0.95545 -0.3285,-0.34967 -0.80797,-0.57784 -1.21424,-0.57784 -0.36927,0 -0.85616,-0.0934 -1.082,-0.20743 -0.74981,-0.37881 -2.09021,-0.7383 -2.792058,-0.74882 -0.380936,-0.005 -1.093988,-0.15358 -1.584561,-0.32862 -0.593308,-0.21169 -1.175905,-0.25419 -1.740023,-0.12697 -0.494837,0.11161 -1.425202,0.0839 -2.233689,-0.0664 -1.087041,-0.20216 -1.595315,-0.18848 -2.358754,0.0635 l -0.973134,0.32116 0.166263,2.43932 c 0.12559,1.84253 0.09185,2.52899 -0.137897,2.80582 -0.16729,0.20157 -0.397608,0.86629 -0.511819,1.47713 -0.429728,2.29839 -0.486927,2.53524 -0.667963,2.7659 -0.197861,0.25209 -0.575382,2.01009 -0.431584,2.00977 0.04698,-1.1e-4 0.863489,-0.16252 1.814448,-0.36091 z m 0.202127,-16.349189 c -0.388205,-0.388201 0.07726,-3.083908 0.73567,-4.26055 0.15896,-0.284081 0.289016,-0.73024 0.289016,-0.991469 0,-0.261228 0.223331,-0.853477 0.496291,-1.316108 0.574381,-0.973505 0.893034,-1.020516 3.384348,-0.499265 1.037874,0.21715 2.000938,0.605378 2.639697,1.064094 0.553116,0.397219 1.121283,0.722224 1.262593,0.722224 0.141308,0 0.256925,0.166609 0.256925,0.370237 0,0.647544 -0.441511,1.225868 -1.053045,1.379348 -0.325924,0.08178 -1.110607,0.454168 -1.743738,0.827479 -0.633134,0.373311 -1.399659,0.757616 -1.703391,0.854014 -0.661963,0.210098 -2.314134,1.075533 -3.087844,1.617456 -0.579017,0.405557 -1.204929,0.504136 -1.476522,0.23254 z m 1.153818,-0.805841 c 0.138418,-0.223969 5.70635,-2.987277 6.787507,-3.368579 0.227599,-0.08026 0.411073,-0.22909 0.407718,-0.330716 -0.01058,-0.320608 -2.251447,-1.721799 -2.753612,-1.721799 -0.264135,0 -0.78875,-0.09761 -1.165814,-0.216918 -1.773595,-0.561164 -1.910489,-0.541511 -2.436405,0.349851 -0.272578,0.461979 -0.495593,1.012544 -0.495593,1.223473 0,0.370103 -0.340056,1.565978 -0.723769,2.545292 -0.426799,1.089271 -0.473992,1.773493 -0.122324,1.773493 0.189887,0 0.415918,-0.114344 0.502292,-0.254097 z m -49.606666,21.53393 c -2.745414,-1.12865 -7.037912,-4.31166 -7.037912,-5.21882 0,-0.26773 0.254173,-0.58018 0.600231,-0.73786 0.553091,-0.252 0.697015,-0.17969 1.832614,0.9208 1.407508,1.36399 4.19222,3.09451 6.031649,3.74827 1.107538,0.39365 1.244188,0.5144 1.182332,1.04477 -0.09167,0.786 -1.066858,0.87678 -2.608914,0.24284 z m 1.474875,-0.4708 c -0.195084,-0.12607 -0.461109,-0.22922 -0.591165,-0.22922 -0.130057,0 -0.07685,0.10315 0.118233,0.22922 0.195085,0.12608 0.461109,0.22922 0.591166,0.22922 0.130056,0 0.07685,-0.10314 -0.118234,-0.22922 z m -1.009908,-0.37933 c -0.07858,-0.0786 -0.282528,-0.087 -0.453227,-0.0187 -0.188637,0.0755 -0.132604,0.13152 0.142865,0.14287 0.249275,0.0103 0.388938,-0.0457 0.310362,-0.1242 z m -0.981834,-0.30058 c -0.151473,-0.24509 -3.331899,-2.15769 -3.587982,-2.15769 -0.176949,0 1.191156,0.91546 2.742128,1.83487 0.976152,0.57866 1.012563,0.59256 0.845854,0.32282 z m -4.523068,-3.16775 c -0.06345,-0.16537 -0.352746,-0.44538 -0.642862,-0.62225 -0.503071,-0.3067 -0.500952,-0.29278 0.04579,0.30067 0.640096,0.69479 0.76639,0.7628 0.597076,0.32158 z m 92.744219,3.38503 c -0.78836,-0.8726 -0.83607,-1.01297 -0.70899,-2.08592 0.0947,-0.79924 0.0255,-1.36467 -0.22683,-1.85248 -0.28758,-0.55609 -0.33711,-1.24106 -0.23821,-3.29368 0.0686,-1.42537 0.11483,-2.8044 0.10257,-3.06451 -0.0296,-0.62728 0.87384,-2.86548 1.57489,-3.90169 0.30796,-0.4552 0.77759,-1.33308 1.04362,-1.95085 0.26604,-0.61777 0.56238,-1.12321 0.65854,-1.12321 0.0962,0 0.57675,-0.31941 1.068,-0.7098 0.49124,-0.39039 1.33055,-0.825866 1.86513,-0.967737 0.53457,-0.141862 1.308,-0.401312 1.71871,-0.576555 0.93461,-0.398791 3.40719,-0.690166 4.18979,-0.493741 0.32389,0.08133 0.65663,0.361201 0.73941,0.622027 0.13818,0.435364 0.19221,0.445007 0.65953,0.117678 0.63727,-0.446356 1.44371,-0.458386 1.80183,-0.0269 0.43993,0.530089 0.57093,2.533918 0.26272,4.018568 -0.20891,1.00633 -0.51559,1.62851 -1.14752,2.32797 -0.53629,0.59359 -0.83731,1.14609 -0.79605,1.461 0.0873,0.666 -0.49536,2.03176 -1.24869,2.92703 -0.33173,0.39425 -0.76519,1.10464 -0.96325,1.57865 -0.21071,0.50429 -0.69987,1.06231 -1.17909,1.34506 -0.45045,0.26577 -0.81901,0.6733 -0.81901,0.9056 0,0.23231 -0.24495,0.58289 -0.54434,0.77905 -0.29939,0.19617 -1.14684,0.94489 -1.88322,1.66382 -0.73637,0.71894 -1.58212,1.38392 -1.87942,1.47774 -0.29732,0.0938 -0.95876,0.52786 -1.46989,0.96451 -0.51111,0.43665 -1.11059,0.79391 -1.33216,0.79391 -0.22157,0 -0.78321,-0.421 -1.24807,-0.93556 z m 2.25987,-0.45133 c 0.42721,-0.37262 1.01558,-0.75203 1.30748,-0.84315 0.2919,-0.0911 1.2429,-0.85033 2.11333,-1.68717 0.87044,-0.83682 1.66708,-1.52151 1.77031,-1.52151 0.10324,0 0.25541,-0.26974 0.33816,-0.59942 0.0831,-0.331 0.46499,-0.76208 0.85286,-0.96266 0.42736,-0.221 0.87841,-0.7611 1.15186,-1.3793 0.24721,-0.55884 0.61809,-1.15603 0.82419,-1.32708 0.59771,-0.49605 1.28604,-2.02962 1.28604,-2.86526 0,-0.56169 0.22712,-1.00055 0.8456,-1.63394 0.93815,-0.96075 1.26836,-2.00329 1.27696,-4.03169 0.007,-1.659763 -0.36552,-2.077448 -1.23968,-1.389838 -0.79171,0.622758 -1.07299,0.598128 -1.40142,-0.122692 -0.14956,-0.328258 -0.49334,-0.652405 -0.76396,-0.720329 -0.87118,-0.218651 -5.65658,1.093283 -6.51307,1.785579 -0.32944,0.26628 -0.81954,0.59754 -1.08912,0.73613 -0.26957,0.13858 -0.75746,0.80214 -1.0842,1.47455 -0.32674,0.67243 -1.00298,1.99294 -1.50276,2.93446 -0.88777,1.67244 -0.90973,1.77393 -0.95378,4.406 -0.0248,1.48177 -0.10675,2.79393 -0.18216,2.91593 -0.0754,0.12199 0.0824,0.58268 0.3506,1.02373 0.39016,0.64158 0.45965,1.03862 0.3475,1.98559 -0.12546,1.05922 -0.0739,1.25283 0.49016,1.84161 0.3467,0.36188 0.71316,0.65796 0.81436,0.65796 0.1012,0 0.53353,-0.30487 0.96074,-0.6775 z m 1.17874,-3.38972 c -0.15607,-0.15607 -0.28376,-0.52158 -0.28376,-0.81224 0,-0.29067 -0.1171,-0.82804 -0.26022,-1.19416 -0.14313,-0.36612 -0.29642,-2.06474 -0.34066,-3.77471 -0.079,-3.05571 -0.0692,-3.12678 0.5755,-4.14332 0.92639,-1.46077 2.93478,-2.508 4.99843,-2.60633 l 1.52977,-0.0729 0.0727,1.00498 c 0.0484,0.66973 -0.023,1.00498 -0.214,1.00498 -0.17949,0 -0.12985,0.17331 0.13273,0.46347 0.32428,0.35834 0.38145,0.6668 0.25195,1.35969 -0.0921,0.49291 -0.24785,1.00261 -0.34609,1.13267 -0.0982,0.13006 -0.31883,0.75431 -0.49021,1.38722 -0.17139,0.63292 -0.54026,1.43099 -0.81972,1.7735 -0.27946,0.34251 -0.79598,1.12356 -1.14783,1.73568 -0.73891,1.28548 -1.70807,2.37742 -2.44891,2.75911 -0.6546,0.33726 -0.85775,0.3343 -1.2097,-0.0176 z m 1.71923,-1.23054 c 0.44269,-0.4427 1.13609,-1.39173 1.54087,-2.10898 0.40479,-0.71724 0.88791,-1.43016 1.0736,-1.58427 0.18569,-0.15411 0.51447,-0.91052 0.73063,-1.6809 0.21616,-0.77039 0.4846,-1.4573 0.59652,-1.52648 0.40106,-0.24786 0.21351,-1.50642 -0.26942,-1.80801 -0.26011,-0.16244 -0.47294,-0.42219 -0.47294,-0.57723 0,-0.15503 0.21283,-0.34943 0.47294,-0.43198 0.51629,-0.16387 0.56756,-0.31233 0.26993,-0.78159 -0.32127,-0.50653 -2.46726,-0.0886 -3.86749,0.75333 -0.8889,0.53442 -1.38392,1.04406 -1.79675,1.8498 -0.51457,1.00428 -0.54455,1.22213 -0.30917,2.24642 0.14336,0.62386 0.21596,1.66634 0.16133,2.31663 -0.0546,0.65027 -0.0112,1.55476 0.0966,2.00996 0.10774,0.4552 0.2618,1.12026 0.34235,1.47791 0.19117,0.84884 0.45622,0.8202 1.43103,-0.15461 z m -21.15472,4.35595 c -0.39278,-0.7781 -0.69356,-1.49637 -0.6684,-1.59614 0.0252,-0.0998 -0.0364,-0.63127 -0.13677,-1.18108 -0.15123,-0.82828 -0.0959,-1.12132 0.32274,-1.70923 0.35962,-0.50504 0.52486,-1.13757 0.5733,-2.19451 0.0374,-0.81672 0.1836,-1.69692 0.32482,-1.956 0.14122,-0.25908 0.5899,-1.58836 0.99706,-2.95395 0.93933,-3.15046 1.42516,-4.52971 1.7334,-4.92107 0.24605,-0.31241 0.40691,-1.514366 0.4297,-3.210784 0.0163,-1.214928 -0.66379,-2.118678 -1.71026,-2.272659 -0.69791,-0.10269 -0.81304,-0.216104 -0.87584,-0.862736 -0.06,-0.6173 0.11197,-0.926174 1.00625,-1.807803 0.59321,-0.584813 1.23572,-1.123608 1.42782,-1.197323 0.19208,-0.07373 0.64375,-0.551986 1.0037,-1.062825 0.35996,-0.510847 1.1333,-1.227441 1.71856,-1.592422 4.2744,-2.665678 4.32423,-2.672783 4.44514,-0.6332 0.0646,1.089878 -0.007,1.279242 -0.85613,2.260201 -0.70395,0.813358 -1.03066,1.487704 -1.35944,2.806029 -0.23804,0.95446 -0.4468,1.841783 -0.46393,1.971847 -0.0986,0.749233 -0.43655,1.801029 -0.61385,1.9106 -0.11325,0.06998 -0.20592,0.382008 -0.20592,0.693357 0,0.311349 -0.0952,0.810515 -0.21158,1.109254 -0.11636,0.298747 -0.49603,1.660484 -0.84369,3.026074 -1.01993,4.00626 -1.32166,5.05605 -1.59594,5.55262 -0.33488,0.60631 -0.29205,3.97616 0.0589,4.63185 0.1486,0.27768 0.2174,0.70669 0.15289,0.95339 -0.1672,0.63942 0.16527,0.74631 0.8155,0.26219 0.30792,-0.22926 0.87907,-0.56928 1.26925,-0.75561 0.39017,-0.18632 1.47905,-0.79537 2.41975,-1.35345 0.94069,-0.55807 1.80567,-1.01467 1.92216,-1.01467 0.11649,0 0.33593,0.29966 0.48763,0.66592 0.4954,1.19597 -0.34308,2.34099 -2.46488,3.36601 -0.39017,0.18849 -0.91568,0.52892 -1.1678,0.75652 -0.25213,0.22759 -0.53176,0.41381 -0.62141,0.41381 -0.0896,0 -0.52183,0.16359 -0.96039,0.36354 -0.74837,0.34119 -1.31917,0.69388 -3.7169,2.2967 -1.46368,0.97843 -1.80568,0.87923 -2.63541,-0.76445 z m 4.84552,-1.48585 c 0.52022,-0.33909 1.23412,-0.68689 1.58644,-0.7729 0.35233,-0.086 0.76602,-0.30751 0.91933,-0.49223 0.15331,-0.18473 0.66312,-0.51284 1.13291,-0.72915 1.31164,-0.60391 2.62768,-1.71527 2.62768,-2.219 0,-0.58183 -0.25353,-0.57064 -1.3525,0.0597 -0.49166,0.28199 -1.37277,0.77197 -1.95803,1.08883 -0.58526,0.31685 -1.50247,0.83298 -2.03826,1.14694 -1.39523,0.81759 -1.88198,0.51699 -1.96174,-1.21147 -0.012,-0.26011 -0.0801,-1.40291 -0.15138,-2.53954 -0.0963,-1.53632 -0.0406,-2.26444 0.21711,-2.83759 0.19066,-0.42405 0.47833,-1.35625 0.63927,-2.07155 0.16093,-0.71532 0.44168,-1.773 0.62388,-2.3504 0.55577,-1.76118 1.48878,-5.478828 1.48878,-5.932111 0,-0.235033 0.11283,-0.464945 0.25075,-0.51091 0.1379,-0.04594 0.26107,-0.447428 0.27372,-0.892131 0.0127,-0.444694 0.16288,-1.078188 0.33386,-1.407751 0.17098,-0.329573 0.3798,-1.080887 0.46405,-1.669597 0.14224,-0.993945 0.9978,-2.495145 1.65259,-2.899674 0.3291,-0.203315 0.66149,-1.73634 0.4505,-2.077737 -0.24736,-0.400239 -3.61364,1.701682 -4.67245,2.917495 -0.3607,0.414182 -0.74908,0.859475 -0.86306,0.98953 -0.11397,0.130056 -0.80242,0.715316 -1.52988,1.300566 -0.9021,0.725755 -1.32317,1.234699 -1.32426,1.600655 -0.002,0.454569 0.0887,0.513868 0.58993,0.388084 0.77017,-0.193296 1.39157,0.53329 1.89055,2.210617 0.26748,0.899138 0.30244,1.369616 0.12625,1.69883 -0.13402,0.250424 -0.24367,0.874918 -0.24367,1.387764 0,0.51286 -0.14209,1.05038 -0.31574,1.1945 -0.17365,0.14412 -0.45055,0.7158 -0.61532,1.2704 -0.91394,3.07613 -1.94827,6.26245 -2.14935,6.62123 -0.12657,0.22583 -0.23012,1.01135 -0.23012,1.74559 0,0.93631 -0.14584,1.57094 -0.48836,2.12516 -0.60062,0.97182 -0.45482,2.45851 0.41005,4.1814 l 0.56841,1.13229 1.3511,-0.91464 c 0.7431,-0.50306 1.77674,-1.19209 2.29696,-1.53118 z M 58.255492,62.76734 c -1.06009,-0.945272 -2.372394,-1.800055 -3.85388,-2.510258 -1.235537,-0.592293 -2.406046,-1.155799 -2.60113,-1.252233 -0.486335,-0.240405 -0.550515,-0.755783 -0.160528,-1.289126 0.31687,-0.433344 0.371395,-0.428419 1.931313,0.174429 3.181358,1.229479 7.451401,4.312547 7.451401,5.38009 0,0.372749 -0.621722,0.930455 -1.03725,0.930455 -0.06736,0 -0.845829,-0.645006 -1.729926,-1.433357 z m 1.230144,-0.361496 c -2.005049,-1.762062 -6.085266,-4.134927 -7.06758,-4.110179 -0.14458,0.0036 0.375584,0.296263 1.155923,0.650278 2.196936,0.99668 3.909448,2.057422 5.202258,3.222338 0.650283,0.585948 1.288742,1.066132 1.418798,1.067079 0.130057,8.94e-4 -0.189172,-0.372337 -0.709399,-0.829516 z m 1.537032,-0.486127 c -1.648475,-1.707259 -4.482467,-3.517046 -7.157135,-4.57054 -1.528398,-0.601999 -1.686445,-0.755087 -1.473214,-1.426913 0.235424,-0.741761 1.438098,-0.58761 3.610004,0.462693 2.659692,1.286204 4.392759,2.432477 6.010161,3.975217 1.473659,1.405633 1.636534,1.7921 0.917459,2.176941 -0.729236,0.390274 -1.027538,0.293716 -1.907275,-0.617398 z M 61.495601,60.8379 c -2.19817,-1.964519 -6.999661,-4.698299 -8.192932,-4.664739 -0.24095,0.0071 0.210964,0.253614 1.004249,0.548518 2.547596,0.947078 6.014743,3.184131 7.522227,4.853442 0.248477,0.275153 0.514502,0.43581 0.591166,0.357018 0.07666,-0.07883 -0.339457,-0.571201 -0.92471,-1.094239 z M 28.525517,41.104179 c -0.310139,-0.80821 0.147847,-2.532074 0.845963,-3.184211 0.370756,-0.346339 0.674102,-0.73303 0.674102,-0.859314 0,-0.349511 -1.725645,-0.550163 -3.220479,-0.374482 -1.2234,0.143792 -1.37022,0.109679 -1.770865,-0.411438 -0.290132,-0.377369 -0.43863,-0.970341 -0.442121,-1.765431 -0.0045,-1.024126 0.09691,-1.295097 0.701461,-1.874288 0.702249,-0.672801 0.726077,-0.677135 3.766705,-0.685098 1.682993,-0.0045 3.014851,-0.08106 2.959685,-0.17031 -0.05517,-0.08928 0.229604,-1.796059 0.632825,-3.792886 1.231016,-6.096237 1.345456,-6.95362 0.992565,-7.436226 -0.432434,-0.59139 -0.385443,-1.136137 0.138938,-1.610699 0.246503,-0.223085 0.503768,-0.69182 0.571703,-1.041635 0.06793,-0.349815 0.227606,-1.035628 0.354827,-1.524034 0.14651,-0.562452 0.14857,-0.939142 0.0056,-1.027496 -0.124131,-0.07668 -0.155376,-0.459628 -0.06943,-0.850912 0.08594,-0.391294 0.08591,-1.274434 -5.9e-5,-1.962544 -0.188372,-1.507679 -0.541349,-1.651856 -2.778718,-1.134967 -0.804375,0.185825 -1.656819,0.287049 -1.894321,0.224943 -0.237502,-0.06211 -0.766621,0.05407 -1.175821,0.258235 -0.728086,0.363203 -0.755789,0.356438 -1.294125,-0.316345 -0.302561,-0.37812 -0.55064,-0.824717 -0.551286,-0.992443 -0.0014,-0.377387 1.803548,-2.1747956 2.195692,-2.1864496 0.157317,-0.0045 0.590271,-0.257359 0.962121,-0.561514 0.639396,-0.522993 0.813382,-0.546498 3.20563,-0.433111 2.228019,0.105604 2.665418,0.05979 3.669478,-0.384358 1.300907,-0.575446 1.789222,-0.632395 1.789222,-0.208659 0,0.180525 0.345166,0.303002 0.886748,0.314656 0.487712,0.01046 1.472002,0.183447 2.187313,0.38434 0.715311,0.200902 1.939024,0.348376 2.719363,0.327722 0.780338,-0.02064 1.785523,0.03932 2.233743,0.133273 0.714899,0.149852 0.924631,0.07177 1.708419,-0.636372 1.500412,-1.355539 2.830587,-1.364468 2.990836,-0.02011 0.116415,0.976651 -2.362535,3.9301996 -3.298667,3.9301996 -0.248287,0 -0.872844,0.266028 -1.387901,0.591167 -1.088852,0.687368 -1.705197,0.743924 -2.243268,0.205853 -0.303348,-0.30335 -0.863785,-0.383697 -2.634446,-0.377691 -1.237021,0.0045 -2.294577,0.05309 -2.350126,0.108633 -0.05555,0.05559 -0.296358,1.232553 -0.535133,2.615566 l -0.434136,2.514566 0.965376,0.127249 c 1.697671,0.223764 5.086217,0.03682 5.211227,-0.287495 0.285232,-0.74 2.966371,-0.0303 2.966371,0.785205 0,0.577618 -1.199881,2.103136 -2.084617,2.650368 -0.74602,0.461424 -1.160041,0.533218 -2.881176,0.49964 -1.10548,-0.02154 -2.718112,0.04236 -3.583629,0.141987 l -1.573665,0.181213 -0.594134,1.447344 c -0.562307,1.369812 -0.759408,2.267341 -1.356417,6.176672 -0.617778,4.045321 -0.603345,4.126499 0.735078,4.134542 0.331645,0.0018 0.72804,0.128671 0.880879,0.281508 0.397478,0.397478 4.22986,0.328857 6.738078,-0.120654 2.162815,-0.387602 2.537272,-0.516255 2.537272,-0.871718 0,-0.117508 0.220464,-0.802892 0.489922,-1.523079 0.437818,-1.17017 0.562078,-1.309432 1.168376,-1.309432 0.37315,0 0.744217,-0.106416 0.824598,-0.236472 0.08038,-0.130056 0.543907,-0.236463 1.030063,-0.236463 1.205302,0 2.635164,1.405535 2.635164,2.590327 0,1.104321 -0.995169,2.713501 -1.913317,3.093801 -0.411983,0.170658 -0.996469,0.557688 -1.298856,0.860073 -0.423418,0.423414 -0.811935,0.549788 -1.690256,0.549788 -0.671077,0 -1.366766,0.158512 -1.690306,0.385126 -0.423164,0.296397 -0.899942,0.357019 -2.069445,0.263142 -0.835783,-0.06712 -1.968755,-0.01743 -2.517719,0.110348 -0.548963,0.127777 -1.47696,0.263186 -2.062213,0.300929 -0.585255,0.03772 -2.189857,0.149002 -3.565785,0.247268 l -2.501686,0.178675 -0.913534,1.493764 c -0.710142,1.16118 -1.171485,1.627582 -2.072113,2.094851 -1.358391,0.704752 -1.71919,0.743227 -1.9256,0.205335 z m 1.776857,-0.877161 c 0.574802,-0.293484 1.167097,-0.950126 1.838658,-2.038431 l 0.990701,-1.60548 2.23912,-0.0097 c 1.231516,-0.0054 2.339347,-0.07168 2.461847,-0.147403 0.122501,-0.0757 0.96282,-0.186995 1.867378,-0.247313 0.904558,-0.06033 1.924271,-0.215979 2.26603,-0.345909 0.341758,-0.12994 1.23778,-0.17182 1.991161,-0.09308 1.022467,0.106873 1.557939,0.04585 2.111858,-0.240565 0.408143,-0.211064 1.220171,-0.38375 1.804511,-0.38375 0.793826,0 1.146052,-0.119385 1.393181,-0.472212 0.181911,-0.259709 0.660289,-0.587083 1.063063,-0.727497 0.789995,-0.275394 1.707066,-1.705944 1.707066,-2.66288 0,-0.3031 -0.358332,-0.884803 -0.821715,-1.333938 -0.741039,-0.718238 -0.881431,-0.769225 -1.429924,-0.51932 -0.334514,0.152417 -0.859224,0.277119 -1.16602,0.277119 -0.452897,0 -0.628705,0.20806 -0.93474,1.106224 -0.20731,0.608425 -0.376926,1.30272 -0.376926,1.542884 0,0.558215 -0.772601,0.85555 -3.310529,1.274049 -2.713926,0.447527 -5.197117,0.412483 -7.330455,-0.103441 l -1.773497,-0.428901 -0.08067,-1.04512 c -0.04437,-0.574821 0.03395,-1.736787 0.174037,-2.582158 0.140084,-0.845363 0.415112,-2.54792 0.611172,-3.783458 0.442958,-2.791444 1.298139,-4.98171 2.057134,-5.268669 0.301866,-0.114138 2.015103,-0.248118 3.807191,-0.297746 3.650409,-0.10109 4.327566,-0.328366 5.154582,-1.730049 0.449877,-0.762487 0.452031,-0.811847 0.0488,-1.117736 -0.597711,-0.453407 -1.08091,-0.409203 -1.552918,0.142059 -0.308872,0.360745 -0.565802,0.437651 -1.053306,0.31529 -0.354632,-0.08902 -0.806302,-0.140307 -1.003712,-0.114004 -0.87619,0.116739 -4.539623,0.03262 -4.769604,-0.109518 -0.263489,-0.162846 -0.2159,-0.874194 0.27535,-4.115881 0.147818,-0.975418 0.356716,-1.864036 0.464219,-1.974689 0.107501,-0.110662 1.482925,-0.247224 3.056498,-0.303476 2.367657,-0.08464 2.861039,-0.04415 2.861039,0.235016 0,0.476966 0.698215,0.692177 0.861883,0.26567 0.07402,-0.192894 0.284256,-0.350718 0.46719,-0.350718 0.182935,0 0.517382,-0.09998 0.743217,-0.222181 0.225835,-0.1222 0.689375,-0.280363 1.030092,-0.351469 0.667005,-0.139216 3.144224,-3.0956236 2.910602,-3.4736276 -0.258321,-0.417971 -0.982297,-0.191794 -1.899746,0.593509 l -0.937687,0.802624 -2.710989,1.8e-5 c -1.810599,9e-6 -2.959531,-0.109992 -3.459321,-0.331208 -0.411581,-0.182169 -1.399175,-0.399247 -2.194651,-0.482391 -0.795476,-0.08312 -1.498624,-0.235802 -1.56255,-0.339234 -0.06393,-0.10344 -0.531858,-0.0018 -1.039846,0.225453 -0.732099,0.327767 -1.456396,0.400454 -3.493031,0.350548 -2.433428,-0.05961 -2.605226,-0.03217 -3.245991,0.5184 -0.372115,0.31975 -0.820607,0.581363 -0.996647,0.581363 -0.176039,0 -0.646149,0.311626 -1.04469,0.692489 -0.615943,0.5886286 -0.685301,0.7659456 -0.462461,1.1823346 0.261447,0.488513 0.718452,0.671397 0.718452,0.287504 0,-0.457957 5.961408,-0.788646 6.395135,-0.35474 0.422745,0.422905 0.488939,5.723596 0.08137,6.516112 -0.180611,0.351191 -0.328383,0.82166 -0.328383,1.045477 0,0.223817 -0.177043,0.602572 -0.393428,0.841671 -0.338063,0.373553 -0.349441,0.516925 -0.08085,1.0188 0.297273,0.555463 0.149456,2.00437 -0.555115,5.44123 -0.592718,2.891247 -1.093934,5.572377 -1.149072,6.146679 l -0.06797,0.707951 -3.125032,0.01171 c -2.958181,0.01108 -3.157029,0.04174 -3.724343,0.574714 -0.697829,0.655578 -0.783092,1.635545 -0.217417,2.498871 0.388116,0.592339 1.126068,0.776018 1.3916,0.346384 0.190149,-0.307667 1.216386,-0.30024 2.707723,0.01957 1.043501,0.223782 1.193971,0.32976 1.193971,0.840948 0,0.351424 -0.290236,0.849991 -0.727089,1.248997 -0.400324,0.365635 -0.813021,1.045094 -0.918293,1.511862 -0.179057,0.793911 -0.09502,1.209513 0.211805,1.047551 0.07316,-0.03861 0.514594,-0.265035 0.980971,-0.503152 z m 79.843456,-1.150866 c -0.49656,-0.377629 -0.98986,-1.879552 -1.47338,-4.485967 -0.40632,-2.190257 -0.2789,-3.369714 0.44193,-4.090543 0.20091,-0.200911 0.43803,-0.760914 0.52692,-1.24444 0.0889,-0.483535 0.27217,-0.950671 0.40728,-1.038086 0.27609,-0.178639 0.80851,-1.956252 1.01478,-3.388054 0.075,-0.520232 0.33012,-1.485541 0.56705,-2.145142 0.44165,-1.229523 0.41528,-1.402254 -0.29954,-1.962856 -0.33299,-0.261148 -0.48348,-0.266716 -0.77051,-0.02851 -0.21623,0.179452 -0.68015,0.243542 -1.178,0.162757 -0.45172,-0.07329 -0.88274,-0.03387 -0.95783,0.08759 -0.0751,0.121494 -0.60426,0.220894 -1.17595,0.220894 -1.00032,0 -1.04525,-0.0311 -1.1944,-0.826075 -0.34217,-1.823926 0.28016,-2.625218 2.20249,-2.835853 1.83288,-0.20083 3.40429,-0.648026 3.54302,-1.00828 0.0626,-0.16257 0.25052,-0.295584 0.41759,-0.295584 0.16707,0 0.37054,-0.266028 0.45214,-0.591167 0.0816,-0.325139 0.2451,-0.591167 0.36332,-0.591167 0.11822,0 0.28893,-0.611858 0.37935,-1.359678 0.21221,-1.754966 0.92535,-2.939642 2.46681,-4.0978806 1.93982,-1.457541 3.23286,-1.592977 3.15021,-0.329948 -0.0785,1.1991456 -0.43516,3.0536016 -0.65609,3.4110756 -0.11585,0.187451 -0.39029,0.985052 -0.60986,1.772447 -0.21956,0.787386 -0.4676,1.591234 -0.5512,1.786318 -0.1718,0.400856 0.3745,0.503492 2.33611,0.438884 3.14595,-0.10361 3.86177,-0.04647 4.4779,0.357198 0.34735,0.227588 0.69194,0.571183 0.76575,0.763532 0.18425,0.480139 -0.53762,1.21955 -1.36885,1.402121 -0.378,0.08303 -1.0195,0.316684 -1.42556,0.519258 -0.40606,0.202573 -1.94464,0.48854 -3.41906,0.635478 -2.76345,0.275403 -3.25891,0.483088 -3.32349,1.393112 -0.0667,0.939168 -0.37982,2.407371 -0.56493,2.6485 -0.0998,0.130056 -0.25677,0.741913 -0.34873,1.359686 -0.092,0.617765 -0.23494,1.123608 -0.31772,1.124081 -0.0828,4.74e-4 -0.17503,1.250786 -0.20503,2.778476 -0.0474,2.418668 0.0354,3.142098 0.54363,4.743128 0.0781,0.246151 0.20743,0.233934 0.62582,-0.05908 0.29004,-0.203154 0.76889,-0.369361 1.06412,-0.369361 0.32613,0 1.42572,-0.747409 2.80202,-1.904567 2.46117,-2.069309 3.17229,-2.494993 3.77897,-2.262185 0.31613,0.121315 0.3626,0.327829 0.23127,1.027898 -0.0904,0.481837 -0.30432,1.146728 -0.47538,1.477516 -0.36095,0.698004 -3.09945,3.080127 -3.54091,3.080127 -0.16439,0 -0.70058,0.319232 -1.19154,0.709399 -0.49098,0.390176 -0.99569,0.709399 -1.1216,0.709399 -0.12592,0 -0.53502,0.257564 -0.90914,0.572354 -0.65791,0.553595 -4.1292,2.028778 -4.77397,2.028778 -0.17442,0 -0.49203,-0.133014 -0.70581,-0.295583 z m 2.83179,-1.103177 c 0.93823,-0.370192 2.0371,-0.951779 2.44192,-1.292416 0.40484,-0.340645 0.87102,-0.619355 1.03596,-0.619355 0.16496,0 0.48371,-0.203091 0.70836,-0.451325 0.22464,-0.248225 0.74658,-0.588147 1.15986,-0.755373 1.21333,-0.490944 3.42057,-2.535729 3.72151,-3.447602 0.14814,-0.448859 0.20885,-0.876598 0.13492,-0.950528 -0.19074,-0.190731 -1.03285,0.41268 -2.34064,1.677185 -0.62006,0.599532 -1.18995,1.090047 -1.26644,1.090047 -0.0765,0 -0.45521,0.266028 -0.84161,0.591168 -0.38642,0.325139 -0.92126,0.591167 -1.18856,0.591167 -0.2673,0 -0.8471,0.223164 -1.28843,0.495931 -0.44133,0.272758 -0.93486,0.445105 -1.09672,0.382991 -0.16187,-0.06211 -0.48199,-0.897136 -0.71139,-1.855609 -0.32728,-1.36748 -0.37459,-2.107847 -0.21977,-3.438809 0.10851,-0.932876 0.10983,-1.932585 0.003,-2.221582 -0.21568,-0.583017 -0.0376,-1.402773 0.3046,-1.402773 0.12129,0 0.22053,-0.359441 0.22053,-0.798754 0,-0.439314 0.15358,-1.166328 0.34129,-1.61558 0.18771,-0.449252 0.41461,-1.369508 0.50421,-2.045017 0.23202,-1.748951 0.77034,-2.075333 3.67721,-2.229465 1.58707,-0.08419 2.61645,-0.271158 3.39971,-0.617631 0.61788,-0.273321 1.30968,-0.496941 1.53733,-0.496941 0.22766,0 0.53468,-0.1455 0.68226,-0.323325 0.56687,-0.683043 -0.36809,-0.976616 -3.14588,-0.987796 -4.00222,-0.01609 -4.15854,-0.03754 -4.15854,-0.569075 0,-0.587315 0.54362,-2.652888 1.06101,-4.031468 0.21965,-0.58525 0.4761,-1.493621 0.56989,-2.018607 0.0938,-0.524978 0.24579,-1.0762756 0.33778,-1.2251086 0.28122,-0.455025 -0.26188,-0.578619 -0.95675,-0.217739 -1.08084,0.561343 -2.52625,1.8014036 -2.88529,2.4754016 -0.18499,0.347241 -0.41965,1.003794 -0.52147,1.458989 -0.43729,1.954956 -0.53525,2.254463 -0.83553,2.554748 -0.17414,0.174143 -0.31663,0.468645 -0.31663,0.654434 0,0.185798 -0.10641,0.337812 -0.23646,0.337812 -0.13006,0 -0.43205,0.195584 -0.67111,0.434631 -0.39588,0.395887 -1.52872,0.692963 -4.20472,1.10264 -0.7209,0.110367 -1.04217,0.298515 -1.23594,0.723797 -0.52582,1.154039 0.50889,2.301357 1.33259,1.47765 0.15467,-0.154669 1.01435,-0.307595 1.9104,-0.339832 1.36916,-0.04924 1.71281,0.0193 2.15311,0.429491 0.57519,0.535872 0.56682,0.926415 -0.07,3.265612 -0.68575,2.519017 -0.93189,3.670839 -0.90171,4.219626 0.0198,0.360254 -0.12541,0.595162 -0.4147,0.670816 -0.30106,0.07874 -0.49224,0.410571 -0.59049,1.024975 -0.0799,0.499703 -0.29715,1.060421 -0.48277,1.246049 -0.5272,0.527185 -0.66892,1.835428 -0.37866,3.495507 0.33362,1.908124 0.94176,3.831853 1.2833,4.059433 0.3933,0.262077 0.59152,0.220769 2.43951,-0.50839 z M 89.757128,36.860834 c -1.198553,-1.298117 -1.232957,-1.375827 -1.501205,-3.390592 -0.222308,-1.669721 -0.208993,-2.552888 0.06999,-4.642199 0.543869,-4.073017 1.126086,-6.491918 1.754456,-7.289099 0.111366,-0.141281 0.324992,-0.637668 0.474722,-1.103079 0.319915,-0.994382 2.933657,-3.377614 4.400487,-4.012396 0.52023,-0.22513 1.81578,-0.532225 2.87902,-0.682435 1.92846,-0.272436 1.93546,-0.271497 2.887732,0.38754 0.52502,0.363346 0.95863,0.857034 0.96356,1.097082 0.0145,0.706109 -0.73786,1.768112 -1.46643,2.069889 -0.371732,0.153981 -0.962972,0.584134 -1.313852,0.95589 -0.39498,0.418481 -0.88063,0.675929 -1.27506,0.675929 -0.3504,0 -0.70287,0.106407 -0.78324,0.236463 -0.25457,0.411903 -1.00397,0.255446 -1.13262,-0.236463 -0.18251,-0.697968 -0.45108,-0.570799 -1.14188,0.54068 -0.90702,1.459364 -1.615841,3.922692 -1.659122,5.765842 -0.04978,2.120118 0.484872,4.893579 1.088552,5.646789 l 0.48041,0.599398 2.1282,-0.507353 c 1.1705,-0.27904 2.44742,-0.651682 2.83758,-0.828086 1.120642,-0.506674 3.605922,-1.285686 4.101762,-1.285686 1.03952,0 1.24346,1.322034 0.33997,2.203833 -0.8925,0.871084 -1.57282,1.343171 -1.93589,1.34335 -0.2077,9.8e-5 -1.05225,0.31933 -1.87678,0.709398 -0.824532,0.390069 -1.612002,0.709212 -1.749932,0.709212 -0.13793,0 -0.84665,0.274196 -1.57491,0.609319 -2.44422,1.124742 -2.7386,1.239193 -3.852627,1.497767 -1.700892,0.394797 -1.830223,0.350727 -3.142895,-1.070993 z m 3.087706,0.354471 c 0.07078,-0.114531 0.382164,-0.20823 0.691954,-0.20823 0.30979,0 0.62902,-0.106416 0.70939,-0.236472 0.0804,-0.130056 0.30392,-0.236463 0.49675,-0.236463 0.19284,0 1.03339,-0.319232 1.86792,-0.709399 0.83452,-0.390168 1.63169,-0.709399 1.77149,-0.709399 0.1398,0 0.77916,-0.266028 1.4208,-0.591167 0.641632,-0.32514 1.366682,-0.591168 1.611222,-0.591168 0.42156,0 1.07138,-0.434782 1.99489,-1.334742 0.46351,-0.451701 0.55033,-1.029918 0.15463,-1.029918 -0.47486,0 -2.92175,0.763809 -3.760742,1.173934 -0.4552,0.222512 -1.60394,0.54623 -2.55275,0.719373 -0.94881,0.173142 -1.77977,0.403233 -1.84656,0.511312 -0.0668,0.108079 -0.37579,0.196514 -0.68663,0.196514 -0.66936,0 -1.648187,-1.187965 -1.850969,-2.246429 -0.07475,-0.390176 -0.240736,-1.241455 -0.368861,-1.891733 -0.403944,-2.050147 -0.298938,-3.954849 0.33948,-6.157895 0.330346,-1.139954 0.864,-2.402179 1.1859,-2.804939 0.32189,-0.40276 0.69427,-0.865301 0.82749,-1.027871 0.36471,-0.445051 1.19756,-0.357376 1.32757,0.139762 0.10074,0.385233 0.22066,0.406826 1.04195,0.187612 0.51047,-0.13625 0.92812,-0.378183 0.92812,-0.537642 0,-0.159451 0.21281,-0.357457 0.47293,-0.440011 0.26011,-0.08258 0.47293,-0.236043 0.47293,-0.341074 0,-0.10504 0.29262,-0.249878 0.65029,-0.321877 0.375052,-0.07552 0.817352,-0.415049 1.045022,-0.802267 0.39282,-0.668108 0.39078,-0.673971 -0.41901,-1.204803 -0.801492,-0.525397 -0.846022,-0.528239 -2.954262,-0.188881 -1.17728,0.189507 -2.42526,0.529911 -2.77329,0.756454 -1.0618,0.691158 -3.352134,2.782461 -3.352134,3.060841 0,0.144114 -0.265443,0.7855 -0.589875,1.425313 -1.231252,2.42815 -2.133992,7.403613 -1.940465,10.694902 0.138545,2.35625 0.247918,2.621912 1.737598,4.220582 0.756905,0.812276 1.029106,0.961386 1.567261,0.858509 0.358197,-0.06846 0.709179,-0.218196 0.779961,-0.332728 z m -22.169915,0.332772 c -0.533884,-0.611937 -1.14024,-6.358395 -0.738065,-6.994659 0.0993,-0.157101 0.195974,-0.76448 0.214836,-1.349731 0.04127,-1.280582 0.918639,-3.685013 1.538232,-4.215523 0.245666,-0.210348 0.446662,-0.624816 0.446662,-0.921061 0,-0.296236 0.07981,-0.538938 0.177349,-0.53934 0.09754,-4.02e-4 0.177468,-0.505852 0.177612,-1.123214 2.37e-4,-1.0717 0.07284,-1.194704 1.60433,-2.718631 0.882237,-0.877885 1.703685,-1.59615 1.82544,-1.59615 0.121753,0 0.690805,-0.330886 1.264562,-0.735308 1.110836,-0.782989 3.03042,-1.192907 3.3284,-0.710766 0.08965,0.145061 0.524152,0.26374 0.965554,0.26374 0.441404,0 1.063571,0.118928 1.382594,0.264285 0.618046,0.281606 0.971423,1.324929 0.60066,1.773421 -0.139886,0.169219 -0.08984,0.370925 0.139199,0.561004 0.426339,0.353837 0.485337,2.144775 0.08388,2.546239 -0.201975,0.201975 -0.204568,0.357082 -0.0099,0.591641 0.461327,0.555874 0.05933,1.215724 -1.2421,2.038877 -0.695405,0.439832 -1.377845,1.048758 -1.516535,1.353145 -0.281969,0.618855 -1.638794,1.275908 -2.634771,1.275908 -0.359419,0 -0.95828,0.158959 -1.330802,0.353247 -0.372521,0.194279 -0.890132,0.355526 -1.150245,0.358315 -0.974892,0.01046 -1.136551,0.315665 -0.857193,1.618278 0.158104,0.737203 0.177393,1.419495 0.04963,1.755529 -0.31773,0.835692 -0.05118,1.89428 0.423933,1.683664 0.210996,-0.09354 0.777815,-0.155223 1.259599,-0.13709 0.481786,0.01814 0.940306,-0.07114 1.018938,-0.198363 0.07863,-0.127223 0.535724,-0.232871 1.01576,-0.234765 1.531731,-0.0063 4.637653,-1.257024 5.660554,-2.279926 0.494885,-0.494885 0.755016,-0.580031 1.434938,-0.4697 1.168927,0.189694 1.335333,0.431565 1.084622,1.576488 -0.218138,0.996179 -0.519701,1.264825 -2.16418,1.927983 -0.422684,0.170452 -0.768515,0.390346 -0.768515,0.488656 0,0.09831 -0.139629,0.178737 -0.310284,0.178737 -0.170655,0 -0.750772,0.212824 -1.289142,0.472936 -0.538372,0.260111 -1.137334,0.472935 -1.331026,0.472935 -0.193691,0 -0.41793,0.106408 -0.49831,0.236464 -0.08038,0.130055 -0.340521,0.236463 -0.578091,0.236463 -0.237571,0 -0.736737,0.158959 -1.109259,0.353247 -0.372522,0.194279 -1.056363,0.3539 -1.519646,0.354695 -0.463282,7.15e-4 -1.261356,0.201787 -1.773497,0.446633 -0.512142,0.244838 -1.303598,0.523155 -1.758796,0.618471 -0.455198,0.09532 -0.934042,0.255133 -1.064098,0.355151 -0.130057,0.100026 -0.562159,0.251379 -0.960227,0.336355 -0.537232,0.114684 -0.818816,0.04558 -1.092604,-0.26828 z m 3.353395,-1.173227 c 0.715311,-0.196442 1.426375,-0.460835 1.580141,-0.587539 0.153767,-0.126704 0.739022,-0.275609 1.300564,-0.330904 1.007983,-0.09924 4.654639,-1.269249 5.451523,-1.749085 0.225835,-0.135981 0.571667,-0.247241 0.768516,-0.247241 0.196848,0 0.357908,-0.08401 0.357908,-0.186629 0,-0.102645 0.567429,-0.436454 1.260952,-0.741797 0.894689,-0.393921 1.332502,-0.744737 1.507281,-1.20777 0.220339,-0.583749 0.18268,-0.681604 -0.356963,-0.927478 -0.495181,-0.225623 -0.639808,-0.209625 -0.807066,0.08928 -0.723996,1.293711 -5.870569,3.024179 -9.466708,3.183058 -0.952274,0.04209 -1.123215,-0.0168 -1.123215,-0.386914 0,-0.240092 -0.121771,-0.558305 -0.270605,-0.707138 -0.20316,-0.203163 -0.193543,-0.456643 0.03858,-1.017048 0.249746,-0.602937 0.25295,-0.965846 0.01667,-1.887783 -0.37661,-1.469454 -0.09664,-2.042836 1.104976,-2.263016 0.486133,-0.08911 1.09377,-0.306478 1.350309,-0.483106 0.25653,-0.176637 0.873672,-0.321153 1.371419,-0.321153 1.062195,0 2.300303,-0.574196 2.300303,-1.066811 0,-0.1899 0.452243,-0.633888 1.004982,-0.986634 1.586339,-1.012374 1.890775,-1.311461 1.549561,-1.522337 -0.2332,-0.144132 -0.234358,-0.347411 -0.0055,-0.980065 0.359748,-0.994866 0.371515,-1.986076 0.02611,-2.199552 -0.150941,-0.09328 -0.209438,-0.489398 -0.137628,-0.93192 0.159222,-0.98121 -0.168837,-1.298404 -1.342906,-1.298404 -0.516488,0 -1.113593,-0.15794 -1.326903,-0.350977 -0.492072,-0.445319 -1.608375,-0.160871 -2.731978,0.696136 -0.433161,0.330395 -0.896008,0.600712 -1.02855,0.600712 -0.304684,0 -2.628167,2.309535 -2.628167,2.612385 0,0.123871 -0.174079,0.225211 -0.386839,0.225211 -0.32185,0 -0.362589,0.176941 -0.242483,1.053217 0.104945,0.765642 0.04915,1.148436 -0.204323,1.401915 -0.191778,0.191777 -0.348686,0.572444 -0.348686,0.845926 0,0.273481 -0.150449,0.55498 -0.33433,0.62554 -0.568354,0.218097 -1.382042,2.599881 -1.411721,4.132326 -0.0179,0.924099 -0.14082,1.487177 -0.353325,1.618457 -0.179232,0.110733 -0.271501,0.293027 -0.205045,0.405119 0.06646,0.112083 0.19463,1.319978 0.284824,2.684214 0.0902,1.364235 0.267819,2.605529 0.394716,2.758437 0.166165,0.200214 0.442327,0.212047 0.986921,0.04227 0.415906,-0.129636 1.341447,-0.396441 2.056757,-0.592883 z m 1.241448,-11.189064 c -0.4092,-0.171704 -0.532049,-0.416112 -0.532049,-1.058508 0,-0.459387 0.0935,-0.835254 0.207778,-0.835254 0.114278,0 0.345839,-0.345829 0.514582,-0.76851 0.312586,-0.783007 0.467775,-1.005037 1.466003,-2.097372 0.439137,-0.480542 0.801209,-0.624182 1.614509,-0.640502 0.576633,-0.01153 1.186567,0.06435 1.355408,0.168683 0.168842,0.104343 0.36885,0.78912 0.444461,1.52172 0.133298,1.291531 0.109861,1.362689 -0.771566,2.342504 -0.863578,0.959975 -1.307267,1.167982 -3.175911,1.488947 -0.325141,0.05586 -0.830587,8.94e-4 -1.123215,-0.121708 z m 3.556983,-1.615481 c 1.030795,-0.99626 1.239079,-1.571742 0.895728,-2.474822 -0.207912,-0.546847 -0.380153,-0.641055 -1.172088,-0.641055 -0.810328,0 -0.990447,0.105228 -1.416677,0.82764 -0.268574,0.455195 -0.598315,0.82763 -0.732755,0.82763 -0.134443,0 -0.244442,0.212815 -0.244442,0.472927 0,0.26012 -0.21994,0.692874 -0.488755,0.96169 -0.402383,0.402385 -0.436119,0.552183 -0.190901,0.84765 0.525004,0.632592 2.29424,0.198632 3.34989,-0.82166 z m 63.459525,12.737667 c -0.78546,-0.869421 -0.83572,-1.015823 -0.71077,-2.070766 0.10549,-0.890728 0.0228,-1.349408 -0.38397,-2.129796 -0.28511,-0.547017 -0.44646,-1.110979 -0.35853,-1.253243 0.0879,-0.142264 0.20003,-1.442339 0.24914,-2.889057 0.0862,-2.539339 0.27319,-3.332204 1.15791,-4.90955 0.18237,-0.325139 0.72737,-1.362635 1.21112,-2.305548 0.48375,-0.942904 0.94318,-1.714632 1.02095,-1.714936 0.0777,-3.04e-4 0.50387,-0.310366 0.94693,-0.68903 0.44305,-0.378665 1.29433,-0.811151 1.89173,-0.961074 0.5974,-0.149932 1.40541,-0.421546 1.79558,-0.603581 0.85142,-0.397255 3.40969,-0.698755 4.21466,-0.496727 0.32234,0.08088 0.63648,0.374464 0.71273,0.666026 0.12907,0.49359 0.1599,0.500025 0.57892,0.120815 0.51928,-0.469942 1.54679,-0.527176 1.88425,-0.104951 0.43864,0.548822 0.54741,2.838168 0.20329,4.279175 -0.24202,1.013473 -0.56424,1.622211 -1.20731,2.280765 -0.65361,0.669369 -0.83787,1.022151 -0.72297,1.384202 0.17133,0.539804 -0.29866,1.595881 -1.27914,2.874193 -0.34914,0.455195 -0.77718,1.183273 -0.9512,1.617957 -0.19737,0.493045 -0.61352,0.932027 -1.10629,1.167016 -0.46932,0.223799 -0.78991,0.55179 -0.78991,0.80813 0,0.237303 -0.22647,0.616629 -0.50326,0.842958 -0.2768,0.226319 -1.0576,0.943547 -1.73511,1.593826 -0.67752,0.650287 -1.54174,1.339935 -1.92052,1.53256 -0.37877,0.192617 -1.12527,0.698067 -1.65889,1.123215 -0.53362,0.425138 -1.13309,0.772987 -1.33217,0.772987 -0.19906,0 -0.74229,-0.421 -1.20717,-0.935566 z m 2.21424,-0.429018 c 0.45232,-0.360352 1.12974,-0.811856 1.50539,-1.003338 0.37565,-0.191482 1.31886,-0.960743 2.09601,-1.709475 0.77716,-0.748732 1.49884,-1.36133 1.60376,-1.36133 0.10491,0 0.25859,-0.308874 0.3415,-0.686395 0.10315,-0.469628 0.37965,-0.78121 0.87551,-0.986607 0.46529,-0.192724 0.85116,-0.603081 1.07785,-1.14621 0.19421,-0.465303 0.63336,-1.21845 0.97589,-1.673645 0.97162,-1.291182 1.21396,-1.82415 1.21396,-2.669771 0,-0.583848 0.20854,-0.986572 0.81546,-1.574816 0.8908,-0.863407 1.31274,-2.229716 1.31274,-4.250888 0,-1.481869 -0.40818,-1.859345 -1.27408,-1.178224 -0.70761,0.556598 -1.30954,0.451308 -1.49598,-0.261666 -0.23416,-0.895402 -0.85957,-0.852852 -5.41837,0.36861 -1.636,0.438339 -3.87135,2.107891 -3.87135,2.891452 0,0.18477 -0.18622,0.618846 -0.41382,0.964622 -1.29963,1.974457 -1.69401,2.895053 -1.99057,4.646587 -0.13212,0.780334 -0.1827,2.068049 -0.11242,2.861592 0.082,0.926638 0.0315,1.539094 -0.14139,1.711978 -0.20126,0.201268 -0.13484,0.508211 0.26327,1.216546 0.43375,0.771763 0.50241,1.147693 0.37039,2.028063 -0.14606,0.973934 -0.0964,1.149222 0.50254,1.774396 0.36555,0.381542 0.72687,0.693705 0.80297,0.693705 0.0761,0 0.50842,-0.294833 0.96074,-0.655186 z m 1.22508,-3.411335 c -0.15645,-0.156447 -0.28446,-0.516201 -0.28446,-0.799451 0,-0.28325 -0.16189,-0.902472 -0.35977,-1.376042 -0.25906,-0.620043 -0.325,-1.337888 -0.23556,-2.564605 0.0688,-0.943753 0.0115,-2.044919 -0.12839,-2.468941 -0.20892,-0.633011 -0.16662,-0.959777 0.2446,-1.889383 0.63631,-1.438504 0.98097,-1.806623 2.48766,-2.656945 0.96442,-0.544282 1.58787,-0.712447 2.86356,-0.772372 l 1.63073,-0.07659 0.0728,1.004973 c 0.0484,0.669744 -0.023,1.004983 -0.21401,1.004983 -0.18259,0 -0.13908,0.163124 0.11981,0.449198 0.31075,0.34338 0.36783,0.663685 0.24228,1.359686 -0.0903,0.500767 -0.24591,1.016887 -0.34574,1.146952 -0.0998,0.130056 -0.34756,0.79955 -0.55051,1.487776 -0.20296,0.688217 -0.59477,1.539496 -0.8707,1.891724 -0.27593,0.352238 -0.84289,1.18683 -1.2599,1.854662 -1.19237,1.90951 -2.78499,3.031714 -3.41231,2.404395 z m 1.37081,-0.971172 c 0.69957,-0.627042 1.89173,-2.177057 1.89173,-2.459575 0,-0.109097 0.31041,-0.574955 0.68982,-1.035235 0.37939,-0.460271 0.86522,-1.440238 1.0796,-2.1777 0.21438,-0.737462 0.48922,-1.402291 0.61075,-1.4774 0.41991,-0.259522 0.24284,-1.499091 -0.25197,-1.763912 -0.59772,-0.319884 -0.61038,-0.870369 -0.0243,-1.05639 0.3143,-0.09975 0.41045,-0.288434 0.32109,-0.630143 -0.1162,-0.444345 -0.243,-0.473329 -1.42475,-0.325684 -1.72929,0.216059 -3.42559,1.273352 -4.22127,2.631072 -0.59105,1.008548 -0.60325,1.103918 -0.32792,2.563113 0.15728,0.833565 0.19874,1.655744 0.0921,1.827054 -0.22254,0.357626 -0.1777,1.004965 0.1854,2.676134 0.45481,2.09327 0.43489,2.07552 1.37968,1.228666 z m -90.509022,5.215045 c -0.604911,-0.75506 -1.193793,-2.30933 -1.345039,-3.550052 -0.141816,-1.163342 -0.09149,-1.483495 0.343912,-2.187996 0.341795,-0.553032 0.506404,-1.195535 0.499026,-1.947788 -0.01007,-1.026235 0.145659,-1.707625 0.688874,-3.014268 0.337132,-0.810927 1.41054,-4.337258 1.418315,-4.659404 0.0041,-0.168513 0.26912,-0.838436 0.589005,-1.488714 0.319884,-0.650288 0.582581,-1.529612 0.583771,-1.954062 0.0012,-0.424442 0.125365,-0.969001 0.275947,-1.210121 0.168584,-0.269942 0.196492,-0.609444 0.07263,-0.883542 -0.110635,-0.244829 -0.20901,-0.55894 -0.218613,-0.698022 -0.04772,-0.691211 -0.869286,-1.493943 -1.601128,-1.564404 -0.686395,-0.06614 -0.78162,-0.163374 -0.849024,-0.867393 -0.06502,-0.679092 0.07988,-0.942234 1.009131,-1.832613 0.596782,-0.571818 1.186226,-1.0396676 1.309877,-1.0396676 0.12365,0 0.574024,-0.466456 1.000829,-1.036576 0.686141,-0.91653 4.457026,-3.663564 5.339345,-3.889624 0.576552,-0.147716 0.993622,0.474347 0.993622,1.482002 0,0.793445 -0.203249,1.270367 -1.02059,2.394824 -0.98916,1.3608296 -1.113596,1.7103766 -1.867784,5.2466556 -0.14562,0.682792 -0.353382,1.241446 -0.461694,1.241446 -0.108308,0 -0.196926,0.195798 -0.196926,0.435104 0,0.427686 -0.318016,1.725696 -1.515581,6.185949 -0.331737,1.235538 -0.669067,2.512456 -0.749627,2.837596 -0.08056,0.325148 -0.304616,0.945674 -0.497906,1.378964 -0.294596,0.660386 -0.307716,1.100183 -0.08112,2.719364 0.148669,1.06236 0.27964,2.220644 0.291045,2.573972 l 0.02073,0.642404 1.798277,-0.96926 c 0.989052,-0.533101 2.397451,-1.327628 3.129775,-1.765619 1.502942,-0.898905 1.750331,-0.952377 1.953732,-0.422323 0.401177,1.04545 -0.3543,2.936487 -1.173133,2.936487 -0.186229,0 -0.338598,0.08044 -0.338598,0.178746 0,0.09831 -0.345832,0.326283 -0.768516,0.50662 -0.422684,0.180328 -0.981335,0.508309 -1.241448,0.728847 -0.260113,0.220537 -0.845367,0.546007 -1.300565,0.723251 -0.75965,0.295807 -2.247863,1.207735 -4.111014,2.519115 -0.833421,0.586609 -1.629385,0.687172 -1.979539,0.250102 z m 4.329166,-2.798075 c 0.07381,-0.119421 0.606723,-0.336115 1.184259,-0.481543 0.577533,-0.145418 1.050061,-0.341458 1.050061,-0.435622 0,-0.09417 0.505447,-0.427373 1.123215,-0.740447 0.617769,-0.313074 1.160977,-0.655909 1.20713,-0.761852 0.04615,-0.105952 0.314438,-0.280283 0.596186,-0.387397 0.573161,-0.217918 1.268121,-1.334036 0.998516,-1.603639 -0.09593,-0.09592 -0.619267,0.07775 -1.162981,0.385913 -0.996024,0.564561 -2.177637,1.213723 -4.233702,2.325962 -1.304917,0.705904 -1.834198,0.496941 -1.871311,-0.738803 -0.129714,-4.31908 -0.03612,-5.781608 0.478348,-7.474566 0.909508,-2.992917 1.604993,-5.50044 1.869208,-6.739285 0.138688,-0.650288 0.315007,-1.47496 0.391816,-1.832613 0.07681,-0.357654 0.244035,-0.650288 0.371614,-0.650288 0.127578,0 0.231961,-0.47256 0.231961,-1.050143 0,-0.577573 0.09925,-1.111479 0.220557,-1.186454 0.121307,-0.07498 0.344891,-0.74631 0.496856,-1.49187 0.188494,-0.924788 0.5744,-1.7536336 1.214375,-2.6082276 0.849947,-1.134985 1.234995,-2.398658 0.848616,-2.785035 -0.25182,-0.251818 -3.626556,2.088247 -4.915127,3.408198 -0.7189,0.736398 -1.747342,1.7188316 -2.285427,2.1831876 -1.206619,1.041277 -1.433464,1.791385 -0.5092,1.68378 0.481719,-0.05613 0.770147,0.113816 1.240814,0.730893 0.648994,0.850876 1.040321,2.680058 0.729114,3.408082 -0.100381,0.234828 -0.159124,0.72049 -0.13054,1.07926 0.02858,0.358771 -0.157773,0.997234 -0.414121,1.418798 -0.25635,0.421573 -0.760303,1.830593 -1.119893,3.131159 -0.359591,1.300558 -0.730933,2.471068 -0.825203,2.601124 -0.09427,0.130056 -0.249181,0.608899 -0.344245,1.064103 -0.09506,0.455195 -0.253121,0.934038 -0.351237,1.064094 -0.09812,0.130055 -0.231823,0.937693 -0.297125,1.794736 -0.06811,0.893874 -0.2927,1.823783 -0.526758,2.180999 -0.62746,0.957623 -0.16371,3.52474 0.871376,4.823537 0.170223,0.213592 0.673615,-0.01698 1.978484,-0.906217 0.962593,-0.65598 1.810558,-1.290404 1.884364,-1.409824 z m 65.181646,2.1005 c -0.39411,-0.394109 -0.35548,-0.927765 0.15348,-2.120422 0.24048,-0.563515 0.50929,-1.412827 0.59738,-1.887345 0.088,-0.474517 0.37016,-1.129756 0.62686,-1.456093 0.50183,-0.637981 0.61365,-1.46411 0.23025,-1.701074 -0.13005,-0.08035 -0.23647,-0.778323 -0.23647,-1.550989 0,-1.23881 0.0549,-1.404838 0.46461,-1.404838 0.61196,0 1.03525,-0.82923 0.85881,-1.682422 -0.0776,-0.375232 -0.20636,-1.00147 -0.28616,-1.391637 -0.14555,-0.711731 -0.69941,-0.945067 -1.16732,-0.491766 -0.12355,0.119697 -0.73008,0.159057 -1.34785,0.0875 -1.06264,-0.123138 -1.12321,-0.168585 -1.12321,-0.842583 0,-0.541288 0.27188,-0.974131 1.13182,-1.80186 1.49648,-1.440426 4.00108,-2.961797 4.9265,-2.992497 0.40635,-0.01349 1.0859,-0.16828 1.51012,-0.343997 0.69712,-0.288755 0.80285,-0.276314 1.0995,0.129377 0.18051,0.246866 0.25641,0.611517 0.16865,0.810337 -0.0878,0.19881 -0.26731,1.026539 -0.39901,1.839396 -0.1317,0.812848 -0.32826,1.477918 -0.43682,1.477918 -0.10856,0 -0.19738,0.101126 -0.19738,0.224729 0,0.123612 0.77147,-0.356054 1.71439,-1.065917 1.77366,-1.335297 4.66417,-2.705806 5.70674,-2.705806 0.95721,0 1.80106,0.491963 1.80106,1.050017 0,0.51142 -1.12282,1.726313 -2.05353,2.221932 -0.28409,0.151273 -0.86934,0.283286 -1.30057,0.293367 -1.65599,0.0387 -2.91518,0.725977 -4.08222,2.228107 -2.20138,2.833413 -2.42711,3.289439 -2.60584,5.264289 -0.0911,1.006332 -0.31627,2.065377 -0.50044,2.353426 -0.18416,0.288049 -0.33486,1.003472 -0.33486,1.589822 0,1.493228 -0.78087,2.983238 -1.90144,3.628154 -0.99205,0.570951 -2.56167,0.69627 -3.01705,0.240897 z m 2.72339,-0.849063 c 0.91256,-0.462005 1.83874,-2.363426 1.63861,-3.364047 -0.0794,-0.39721 0.0468,-0.966794 0.33244,-1.499699 0.31499,-0.587708 0.46098,-1.326555 0.46198,-2.338018 0.002,-1.734249 0.16416,-2.086477 2.25128,-4.881397 1.54231,-2.06534 1.60881,-2.120135 3.19148,-2.629025 0.889,-0.285851 1.72809,-0.450682 1.86465,-0.366278 0.52539,0.32471 2.82299,-1.48127 2.51614,-1.977764 -0.53219,-0.86111 -3.63768,0.307157 -6.51448,2.450699 -0.97542,0.7268 -1.93311,1.288984 -2.1282,1.249293 -0.37128,-0.07552 -0.42485,-1.307501 -0.0683,-1.571018 0.1026,-0.07579 0.21092,-0.592946 0.24071,-1.149141 0.0298,-0.556205 0.17143,-1.230382 0.31475,-1.49817 0.34068,-0.636569 0.19336,-0.750064 -0.58798,-0.453006 -0.35164,0.133703 -0.9087,0.243086 -1.23792,0.243086 -1.1647,0 -5.75524,3.36807 -5.75524,4.222611 0,0.38249 1.27856,0.335193 2.28291,-0.08446 1.34026,-0.559994 1.50056,-0.485707 1.50056,0.695448 0,0.577573 0.0963,1.109647 0.21396,1.182379 0.24358,0.15054 0.0663,1.931978 -0.2544,2.555918 -0.11697,0.227598 -0.42175,0.413816 -0.67728,0.413816 -0.567,0 -0.62317,0.818049 -0.1362,1.983528 0.35332,0.845622 0.26201,1.937376 -0.20988,2.509337 -0.40232,0.487638 -1.61552,4.41151 -1.44785,4.682811 0.17856,0.288907 1.25655,0.104915 2.20827,-0.376913 z"
       id="path854"
       inkscape:connector-curvature="0" />
  </g>
</svg>
